<?xml version="1.0" standalone="no"?>
<!DOCTYPE svg PUBLIC "-//W3C//DTD SVG 20010904//EN"
 "http://www.w3.org/TR/2001/REC-SVG-20010904/DTD/svg10.dtd">
<svg version="1.0" xmlns="http://www.w3.org/2000/svg"
 width="270.000000pt" height="152.000000pt" viewBox="0 0 270.000000 152.000000"
 preserveAspectRatio="xMidYMid meet">

<g transform="translate(0.000000,152.000000) scale(0.100000,-0.100000)"
fill="#000000" stroke="none">
<path d="M1360 1455 c0 -24 -44 -47 -76 -39 -28 7 -29 6 -11 -13 25 -28 21
-49 -14 -75 l-31 -23 34 -5 c32 -5 33 -6 32 -52 l0 -47 27 20 c35 25 71 24 94
-1 25 -28 36 -25 24 7 -17 46 -4 71 39 75 l37 3 -31 17 c-43 24 -50 46 -22 76
l23 24 -25 -2 c-48 -4 -61 0 -72 25 -12 28 -28 33 -28 10z m53 -52 c11 -4 17
-15 17 -34 0 -15 5 -31 11 -34 7 -5 6 -12 -4 -23 -8 -10 -17 -26 -21 -37 -5
-16 -15 -20 -51 -20 -39 0 -45 2 -45 21 0 12 -7 27 -15 34 -11 9 -13 16 -5 24
5 5 10 23 10 38 0 21 5 28 19 28 11 0 23 5 26 11 4 6 14 7 24 4 9 -4 24 -10
34 -12z"/>
<path d="M1760 1067 c-14 -29 -19 -32 -58 -31 l-42 1 20 -22 c11 -12 20 -26
20 -32 0 -12 -47 -53 -60 -53 -4 0 -20 18 -35 40 -32 45 -47 50 -63 18 l-11
-23 0 23 c-1 25 -17 28 -45 7 -23 -17 -14 -20 15 -5 17 10 19 7 19 -20 0 -39
12 -38 28 2 8 22 15 29 22 22 6 -6 53 -107 105 -225 52 -117 101 -219 110
-225 24 -18 18 -24 -23 -24 -21 0 -42 -4 -47 -9 -6 -5 -19 -11 -30 -14 -11 -3
23 -5 75 -6 69 0 90 2 78 10 -10 5 -18 15 -18 21 0 6 -6 16 -14 22 -7 6 -37
65 -66 131 -57 130 -57 136 0 169 33 20 33 20 70 -1 l36 -21 0 46 c-1 46 0 47
32 50 l32 3 -30 26 c-36 30 -37 39 -7 71 l22 24 -27 -7 c-39 -10 -67 2 -81 35
l-12 29 -15 -32z m48 -44 c17 -12 26 -25 24 -36 -2 -10 2 -25 9 -33 9 -11 8
-18 -5 -32 -9 -10 -16 -25 -16 -33 0 -10 -13 -14 -43 -15 -38 -1 -43 2 -59 34
-12 25 -14 40 -8 53 6 10 8 24 5 31 -3 7 9 20 28 29 17 9 33 17 34 18 2 0 15
-7 31 -16z m-114 -109 c19 -7 21 -41 5 -81 l-11 -28 -23 45 c-13 25 -24 51
-25 58 0 13 28 16 54 6z"/>
<path d="M916 1005 c-7 -29 -43 -47 -75 -38 -25 6 -27 -4 -5 -28 21 -23 13
-44 -27 -68 l-32 -20 39 -3 c36 -3 39 -6 42 -35 2 -18 -2 -42 -9 -55 -11 -21
-10 -20 20 5 41 34 77 34 112 1 l27 -25 -11 39 c-15 55 -5 72 40 72 l38 0 -38
25 c-43 30 -45 40 -15 72 l21 23 -36 -2 c-38 -1 -67 15 -67 38 0 25 -18 24
-24 -1z m40 -50 c15 -7 29 -22 30 -32 1 -10 6 -28 9 -40 4 -14 3 -23 -3 -23
-6 0 -13 -12 -16 -27 -6 -25 -11 -28 -51 -29 -37 -1 -45 2 -45 17 0 10 -7 25
-15 33 -13 12 -14 20 -5 37 6 11 9 27 6 35 -3 9 1 17 12 20 9 3 24 9 32 14 8
5 16 9 16 9 1 1 14 -6 30 -14z"/>
<path d="M1156 994 c-10 -26 -7 -29 8 -9 13 18 17 13 55 -69 23 -49 41 -91 41
-93 0 -2 25 -58 56 -125 47 -103 53 -123 41 -135 -20 -20 -61 16 -83 72 l-17
45 -88 0 c-49 0 -92 1 -96 3 -11 3 -52 -83 -53 -109 0 -12 10 -29 23 -37 l22
-16 -30 -1 c-16 0 -39 -7 -49 -15 -18 -14 -13 -15 55 -14 41 1 66 3 56 6 -32
8 -39 49 -18 99 l20 44 65 0 c42 0 66 -4 69 -12 3 -7 6 -2 7 12 1 23 2 22 20
-11 20 -39 74 -89 93 -89 7 0 26 33 44 72 31 70 63 107 48 57 -5 -19 -4 -21 4
-9 17 24 14 -7 -6 -59 -14 -36 -18 -40 -24 -25 -6 16 -8 14 -8 -8 -1 -34 18
-36 47 -5 22 23 29 68 16 102 -4 9 -46 43 -95 76 -100 67 -124 96 -124 150 0
21 -3 35 -7 33 -5 -3 -8 -1 -8 5 0 5 -11 22 -25 37 -14 15 -25 31 -25 35 0 16
-28 10 -34 -7z m222 -267 c45 -31 47 -39 17 -96 l-13 -25 -16 31 c-31 61 -57
135 -44 127 7 -5 32 -21 56 -37z m-312 -92 c-33 -79 -49 -86 -20 -8 9 24 21
43 25 43 5 0 3 -16 -5 -35z"/>
<path d="M1338 1003 c6 -2 18 -2 25 0 6 3 1 5 -13 5 -14 0 -19 -2 -12 -5z"/>
<path d="M1398 1003 c6 -2 18 -2 25 0 6 3 1 5 -13 5 -14 0 -19 -2 -12 -5z"/>
<path d="M1298 989 c-10 -5 -23 -20 -28 -32 -10 -20 -10 -21 4 -4 8 10 23 25
33 32 21 17 16 19 -9 4z"/>
<path d="M1366 965 c-24 -18 -40 -19 -30 -2 5 8 2 8 -9 -2 -10 -7 -17 -27 -17
-45 0 -38 30 -68 138 -140 82 -55 92 -74 35 -67 -7 1 -13 -3 -13 -9 0 -5 8
-10 18 -10 21 0 62 -39 62 -59 0 -25 -32 -73 -63 -93 -18 -11 -23 -17 -12 -14
11 4 16 3 11 -1 -10 -11 -122 -5 -164 9 -24 7 -37 7 -45 -1 -19 -19 -26 -12
-30 27 l-4 37 1 -40 c1 -33 4 -40 21 -40 11 0 20 -6 20 -13 0 -23 187 -27 232
-5 43 20 73 66 73 113 0 35 1 36 34 32 29 -3 35 -9 45 -43 13 -44 9 -59 -20
-59 -10 0 -19 -4 -19 -10 0 -16 26 -11 43 8 22 24 22 31 -7 97 -14 30 -21 55
-15 55 5 0 9 5 9 11 0 5 -5 7 -10 4 -6 -3 -13 1 -16 9 -3 9 -10 13 -15 10 -11
-6 -48 35 -49 54 0 6 -4 12 -10 12 -5 0 -7 7 -4 15 10 24 20 18 39 -25 33 -73
26 -34 -8 45 -32 76 -57 106 -57 69 0 -25 -42 -124 -52 -124 -4 0 -8 5 -8 10
0 15 31 74 42 81 16 11 -23 80 -56 100 -37 23 -64 24 -90 4z m120 -46 c15 -17
16 -24 4 -60 -25 -74 -30 -77 -86 -42 -37 22 -50 36 -52 57 -8 65 87 97 134
45z m41 -118 c-11 -28 -24 -48 -28 -45 -4 2 -1 21 8 42 19 47 22 52 33 52 4 0
-1 -22 -13 -49z m26 -46 c-5 -13 -23 -22 -23 -11 0 15 14 35 21 31 4 -3 6 -12
2 -20z m40 -77 c-20 -22 -31 -23 -55 -1 -18 16 -18 17 4 40 l22 23 23 -22 c21
-20 22 -23 6 -40z"/>
<path d="M1106 874 c-20 -48 -35 -89 -33 -91 2 -2 20 36 41 83 20 48 35 89 33
91 -2 2 -20 -36 -41 -83z"/>
<path d="M1116 823 c-20 -47 -34 -88 -32 -90 2 -2 19 32 37 76 18 44 36 78 41
75 4 -3 5 2 2 10 -3 9 -7 16 -9 16 -1 0 -19 -39 -39 -87z"/>
<path d="M1132 795 c-37 -86 -37 -85 -18 -85 9 0 24 24 37 60 12 33 24 60 28
60 3 0 17 -27 30 -61 13 -33 25 -58 28 -56 6 6 -58 157 -66 157 -4 0 -21 -34
-39 -75z"/>
<path d="M1025 679 c-41 -98 -68 -139 -91 -139 -8 0 -14 -4 -14 -10 0 -17 15
-11 43 18 25 26 112 210 104 219 -2 2 -21 -38 -42 -88z"/>
<path d="M1426 625 c-9 -26 -7 -32 5 -12 6 10 9 21 6 23 -2 3 -7 -2 -11 -11z"/>
<path d="M968 523 c7 -3 16 -2 19 1 4 3 -2 6 -13 5 -11 0 -14 -3 -6 -6z"/>
<path d="M1688 523 c7 -3 16 -2 19 1 4 3 -2 6 -13 5 -11 0 -14 -3 -6 -6z"/>
<path d="M1339 335 c-13 -26 -20 -30 -57 -30 -45 0 -51 -5 -27 -25 24 -20 17
-49 -17 -70 -32 -19 -32 -20 -8 -20 44 0 53 -13 48 -64 l-6 -46 30 25 c37 31
59 31 96 0 l30 -25 -11 41 c-9 37 -8 44 8 55 10 8 30 14 44 14 l26 1 -27 15
c-43 23 -51 47 -28 77 20 25 20 25 0 20 -35 -9 -68 5 -77 34 l-10 28 -14 -30z
m42 -44 c18 -9 27 -21 27 -38 0 -13 4 -29 10 -35 7 -7 4 -16 -9 -29 -10 -10
-19 -27 -19 -36 0 -15 -9 -18 -45 -18 -40 0 -45 2 -45 22 0 12 -7 29 -16 38
-13 12 -14 19 -5 28 6 6 11 21 11 33 0 15 8 24 25 28 14 4 25 11 25 17 0 6 3
9 8 7 4 -2 19 -10 33 -17z"/>
</g>
</svg>
