<?xml version="1.0" standalone="no"?>
<!DOCTYPE svg PUBLIC "-//W3C//DTD SVG 20010904//EN"
 "http://www.w3.org/TR/2001/REC-SVG-20010904/DTD/svg10.dtd">
<svg version="1.0" xmlns="http://www.w3.org/2000/svg"
 width="3587.000000pt" height="2118.000000pt" viewBox="0 0 3587.000000 2118.000000"
 preserveAspectRatio="xMidYMid meet">

<g transform="translate(0.000000,2118.000000) scale(0.100000,-0.100000)"
fill="#000000" stroke="none">
<path d="M16701 16194 c-12 -15 -21 -32 -21 -38 0 -6 -4 -49 -9 -96 -28 -257
-59 -1123 -101 -2810 -25 -1025 -73 -2512 -100 -3120 -19 -429 -23 -486 -31
-460 -10 34 -32 483 -74 1495 -19 468 -37 891 -40 940 -24 394 -39 668 -65
1175 -68 1309 -103 1690 -164 1776 -36 51 -105 34 -133 -33 -48 -117 -89 -541
-158 -1633 -19 -305 -37 -582 -40 -615 -3 -33 -21 -314 -40 -625 -41 -650 -57
-884 -85 -1205 -34 -387 -80 -729 -101 -750 -6 -5 -9 -5 -9 2 0 6 -9 63 -20
126 -71 418 -171 1505 -285 3092 -76 1057 -124 1483 -187 1652 -46 124 -141
134 -199 20 -70 -135 -126 -493 -224 -1432 -30 -286 -68 -623 -85 -750 -35
-275 -50 -414 -90 -850 -80 -864 -133 -1266 -195 -1470 -39 -128 -47 -131 -94
-37 -123 246 -220 787 -366 2027 -72 614 -161 1097 -241 1307 -88 232 -238
232 -357 0 -79 -154 -133 -340 -257 -896 -39 -175 -89 -378 -110 -450 -21 -72
-86 -306 -144 -521 -58 -214 -118 -434 -135 -488 -33 -109 -92 -267 -101 -267
-15 0 -107 265 -241 695 -119 383 -378 1158 -423 1263 -63 150 -121 219 -221
263 -65 29 -163 36 -203 15 -98 -51 -163 -232 -307 -859 -128 -554 -140 -587
-278 -762 -39 -49 -99 -137 -134 -195 -107 -181 -111 -182 -168 -71 -85 169
-178 439 -360 1041 -191 631 -235 726 -340 722 -49 -2 -69 -14 -155 -97 -62
-58 -86 -74 -135 -89 -33 -10 -77 -27 -98 -37 -73 -38 -108 -109 -248 -512
-112 -322 -166 -450 -210 -506 -48 -60 -180 -168 -216 -177 -29 -8 -28 -8
-196 179 -97 108 -122 118 -228 92 l-72 -18 -18 22 c-10 12 -60 94 -111 182
-111 191 -167 265 -216 286 -32 13 -42 13 -101 -2 -37 -9 -76 -19 -87 -22 -15
-3 -51 15 -117 61 -56 38 -112 68 -134 72 -21 3 -86 24 -145 46 -241 87 -288
86 -361 -7 -24 -30 -75 -117 -115 -192 -40 -76 -86 -162 -102 -190 l-30 -53
-78 0 c-140 0 -148 -5 -315 -193 -38 -42 -76 -77 -86 -77 -44 0 -311 198 -364
270 -159 217 -179 240 -216 260 -78 39 -127 23 -241 -84 -44 -42 -86 -76 -93
-76 -7 0 -52 20 -100 45 -142 73 -190 63 -310 -66 -48 -51 -82 -79 -96 -79
-12 0 -45 12 -74 26 -119 60 -225 140 -363 274 -147 143 -172 159 -234 145
-32 -7 -99 -69 -206 -189 -50 -56 -65 -67 -82 -62 -12 4 -59 8 -104 9 -126 2
-132 -3 -297 -225 -93 -125 -105 -138 -134 -139 -70 -3 -146 3 -217 18 -75 15
-75 15 -170 107 -52 51 -106 99 -119 106 -75 39 -133 29 -212 -36 -96 -79
-118 -75 -249 51 -124 118 -138 122 -246 71 l-76 -36 -994 0 -994 0 0 -60 0
-60 1011 0 1012 0 59 30 c32 16 64 30 71 30 7 0 46 -34 87 -76 145 -147 247
-162 382 -54 28 22 59 40 70 40 11 0 62 -42 117 -95 114 -111 150 -129 293
-151 128 -20 214 -14 263 16 22 14 82 84 154 179 l117 156 120 0 c97 0 125 3
147 18 14 9 68 64 118 122 50 58 98 105 107 105 9 0 74 -58 146 -128 180 -177
374 -301 482 -310 71 -6 109 15 189 104 36 40 77 77 90 80 16 4 51 -9 119 -45
54 -28 110 -51 125 -51 36 0 87 35 179 121 39 38 76 69 81 69 14 0 83 -80 154
-181 69 -98 153 -175 307 -282 191 -132 246 -123 404 67 l87 106 77 0 c160 0
190 24 307 250 44 85 97 180 117 212 44 68 39 68 218 3 63 -23 139 -47 167
-54 35 -9 80 -32 134 -72 93 -67 130 -77 209 -60 114 27 104 29 147 -36 22
-32 68 -107 103 -168 152 -266 174 -285 296 -259 38 9 75 16 83 17 8 1 61 -51
119 -116 58 -66 123 -131 145 -145 78 -52 150 -28 295 99 146 127 171 174 339
653 105 302 148 407 172 427 11 9 58 28 105 43 78 24 90 31 148 92 91 95 91
95 124 26 37 -78 90 -236 190 -572 202 -674 336 -1038 427 -1162 43 -59 100
-72 166 -38 48 24 83 67 161 201 34 57 86 133 114 169 158 196 184 261 296
760 100 441 160 658 215 775 26 55 27 55 71 55 107 0 163 -53 231 -222 57
-139 298 -861 428 -1282 155 -501 238 -716 288 -751 12 -8 36 -15 53 -15 97 0
161 143 309 690 82 302 152 559 205 750 22 79 67 266 101 415 71 321 119 514
161 650 51 169 127 315 164 315 9 0 26 -24 40 -56 78 -177 153 -569 234 -1224
22 -179 56 -453 76 -610 105 -851 223 -1406 337 -1587 65 -104 144 -131 210
-73 114 99 177 461 287 1635 48 512 65 674 90 860 25 184 41 323 95 840 25
237 57 520 70 630 40 316 95 618 115 630 15 9 49 -182 79 -455 28 -248 56
-579 96 -1155 88 -1247 194 -2441 256 -2880 54 -382 95 -505 171 -505 42 0 65
15 87 58 84 164 139 667 226 2052 19 305 39 618 45 695 5 77 24 358 40 625 43
678 72 1070 96 1270 6 46 8 51 15 30 16 -52 54 -624 99 -1500 17 -322 37 -693
45 -825 14 -228 32 -617 55 -1190 60 -1503 96 -2020 145 -2115 15 -30 33 -40
70 -40 34 0 61 41 74 113 34 198 74 1058 121 2567 11 355 22 708 25 785 3 77
12 428 20 780 9 352 22 865 30 1140 8 275 16 525 16 555 l2 55 8 -60 c5 -33
18 -458 29 -945 11 -487 25 -1011 30 -1165 5 -154 14 -516 20 -805 5 -289 15
-761 20 -1050 18 -896 35 -1231 68 -1300 15 -31 21 -35 56 -35 74 0 86 44 105
370 15 258 29 690 41 1305 6 294 15 724 20 955 5 231 15 650 21 930 6 281 14
521 18 535 8 27 10 -6 46 -1285 33 -1165 48 -1468 75 -1541 5 -12 21 -31 35
-40 31 -20 65 -9 88 28 37 59 57 307 97 1218 12 255 23 466 25 469 3 2 5 -4 5
-15 0 -10 7 -98 15 -194 40 -479 67 -618 123 -638 80 -28 112 36 152 307 19
126 60 505 60 551 0 11 4 20 8 20 4 0 16 -42 26 -92 28 -149 67 -300 87 -340
20 -40 51 -55 93 -44 46 11 62 51 156 396 17 64 35 122 40 129 6 11 37 -13
129 -100 130 -124 171 -173 262 -321 84 -135 100 -137 202 -29 l65 69 32 -50
c48 -74 101 -86 137 -31 19 28 104 73 140 73 30 0 53 26 53 59 0 34 -28 61
-62 61 -38 0 -113 -25 -148 -50 -17 -12 -32 -21 -34 -19 -2 2 -19 30 -39 61
-59 93 -103 92 -165 -6 -65 -99 -60 -99 -133 12 -46 70 -101 134 -199 230
-156 154 -195 184 -244 185 -69 2 -105 -59 -165 -278 -23 -82 -43 -150 -46
-153 -5 -5 -4 -8 -51 212 -60 282 -78 326 -139 326 -81 0 -103 -74 -145 -490
-30 -303 -32 -320 -40 -325 -8 -5 -25 176 -50 554 -27 399 -42 485 -88 522
-32 24 -53 24 -85 -2 -51 -40 -59 -109 -92 -855 -14 -311 -25 -571 -25 -577 0
-6 -2 -8 -5 -5 -3 2 -14 315 -25 694 -23 789 -38 1266 -45 1439 -34 791 -47
929 -88 973 -36 39 -88 24 -106 -30 -25 -77 -43 -407 -61 -1153 -6 -231 -15
-586 -20 -790 -9 -332 -38 -1697 -41 -1950 -1 -92 -2 -95 -9 -45 -5 30 -13
372 -20 760 -6 388 -15 833 -20 990 -10 310 -22 752 -45 1690 -32 1287 -55
1773 -87 1834 -24 45 -76 50 -107 10z"/>
<path d="M24753 14151 c-527 -208 -1058 -840 -1181 -1406 -12 -58 -17 -126
-17 -245 0 -142 3 -176 23 -244 69 -239 242 -438 474 -545 114 -53 192 -71
334 -78 228 -11 487 48 719 165 93 46 220 128 250 162 10 11 25 20 33 20 17 0
13 -97 -15 -350 -9 -81 -17 -229 -17 -335 0 -209 13 -288 60 -374 37 -67 67
-86 138 -86 51 0 61 3 77 25 27 36 47 170 59 397 24 446 40 549 156 1003 36
140 80 329 98 420 l33 165 40 7 c22 3 82 27 132 52 79 40 91 50 91 72 0 59
-63 128 -128 140 -48 10 -282 -23 -622 -88 -398 -75 -578 -106 -718 -122 -173
-20 -202 -33 -202 -89 0 -99 126 -186 284 -195 95 -6 176 8 352 59 148 42 278
65 317 55 59 -14 73 -116 28 -205 -49 -95 -200 -227 -399 -348 -153 -93 -261
-142 -475 -217 -171 -60 -194 -66 -268 -66 -161 0 -315 55 -404 144 -99 99
-141 233 -132 421 10 190 50 338 151 550 222 463 581 833 887 911 67 17 101
11 246 -47 40 -16 77 -29 82 -29 12 0 -5 74 -25 113 -41 78 -191 181 -304 206
-64 15 -77 14 -157 -18z"/>
<path d="M20118 14049 c-18 -9 -69 -55 -113 -101 -209 -218 -343 -488 -430
-867 -109 -477 -138 -747 -96 -911 67 -268 296 -524 546 -610 217 -75 491 -28
729 125 199 127 445 390 578 618 127 218 191 474 168 674 -12 109 -55 296 -96
423 -81 247 -248 428 -472 510 -104 38 -235 55 -308 40 -53 -11 -57 -10 -176
38 -137 55 -159 61 -240 71 -44 6 -64 3 -90 -10z m853 -379 c67 -19 102 -51
141 -130 44 -88 63 -175 80 -356 10 -113 10 -148 -4 -247 -41 -289 -188 -578
-408 -798 -124 -125 -214 -188 -398 -277 l-135 -66 -80 12 c-195 28 -313 141
-363 348 -27 110 -23 323 9 508 80 446 164 716 233 743 8 3 35 -12 60 -33 85
-72 106 -84 150 -84 41 0 41 0 105 97 92 139 139 183 272 249 l112 56 95 -6
c52 -3 111 -11 131 -16z"/>
<path d="M28605 13506 c-109 -35 -165 -69 -248 -146 -181 -169 -429 -542 -608
-914 -154 -322 -192 -517 -125 -658 33 -70 103 -150 152 -173 60 -28 162 -18
254 26 144 70 253 180 445 451 220 309 254 355 300 397 25 23 54 41 63 39 10
-2 43 -54 83 -130 106 -202 157 -261 274 -314 53 -25 64 -26 164 -21 122 6
187 24 336 97 207 101 384 240 470 369 49 75 56 110 25 141 -44 44 -145 13
-380 -114 -368 -200 -469 -238 -540 -201 -66 34 -98 188 -66 315 9 35 23 71
30 80 19 22 50 258 43 325 -9 88 -34 118 -140 169 -59 28 -116 66 -157 103
-106 94 -152 129 -207 157 -63 31 -78 32 -168 2z m177 -217 c11 -6 26 -26 34
-44 54 -129 -56 -375 -335 -750 -231 -310 -486 -565 -564 -565 -17 0 -18 5
-12 43 13 75 41 148 147 377 211 456 387 708 631 904 62 50 68 52 99 35z"/>
<path d="M26726 13445 c-38 -35 -100 -86 -138 -112 -149 -104 -152 -106 -161
-148 -11 -52 -1 -195 19 -265 34 -120 27 -493 -12 -645 -23 -87 -68 -179 -184
-370 -71 -118 -104 -182 -107 -210 -5 -38 -2 -43 57 -99 60 -58 62 -58 110
-54 62 6 109 43 213 168 180 217 239 391 277 818 14 150 37 231 88 297 45 60
147 140 199 156 22 6 152 15 298 19 257 7 291 12 353 44 49 25 140 120 162
168 19 42 26 120 14 152 -7 19 -46 21 -76 5 -13 -7 -91 -12 -197 -14 -285 -3
-419 -31 -650 -133 -148 -66 -146 -67 -138 93 5 103 4 126 -11 156 -9 18 -24
35 -32 36 -8 1 -46 -27 -84 -62z"/>
<path d="M22408 13335 c-480 -140 -750 -272 -773 -375 -10 -45 35 -133 88
-171 72 -52 114 -41 392 96 198 98 304 138 393 150 47 6 52 5 52 -13 0 -10
-24 -53 -54 -94 -29 -41 -89 -128 -133 -194 -74 -109 -361 -485 -597 -779
-111 -138 -143 -197 -152 -277 -9 -80 9 -138 61 -196 125 -139 291 -147 636
-32 272 91 649 267 839 391 108 71 217 175 245 234 25 52 26 128 2 152 -44 45
-112 19 -647 -242 -383 -187 -553 -261 -672 -292 -93 -24 -99 -15 -50 78 53
104 99 166 416 564 281 353 338 430 415 563 90 156 114 275 68 343 -31 46
-106 95 -183 119 -121 37 -140 36 -346 -25z"/>
<path d="M32012 13317 c-106 -90 -341 -358 -652 -742 -500 -619 -684 -825
-732 -825 -21 0 -32 8 -44 33 -14 26 -17 58 -16 187 4 340 62 656 181 990 65
182 53 286 -38 347 -96 65 -203 48 -244 -39 -57 -121 -175 -716 -223 -1128
-34 -299 14 -519 140 -638 71 -67 124 -86 230 -80 72 4 95 10 158 41 99 49
189 119 289 225 92 96 132 148 424 547 109 149 250 327 314 398 64 70 147 163
185 205 230 258 295 447 173 503 -64 29 -89 25 -145 -24z"/>
<path d="M32203 12503 c-45 -9 -62 -68 -29 -101 15 -16 157 -17 1856 -20
l1840 -2 0 65 0 65 -1822 -1 c-1003 -1 -1833 -4 -1845 -6z"/>
<path d="M9710 6075 c-87 -28 -138 -105 -148 -222 l-5 -63 -43 0 -44 0 0 -40
0 -40 45 0 45 0 0 -270 0 -270 55 0 55 0 0 270 0 270 75 0 75 0 0 40 0 40 -75
0 -75 0 0 52 c0 67 31 132 71 148 16 7 49 10 74 8 32 -4 45 -2 49 9 9 22 7 61
-2 67 -22 14 -111 14 -152 1z"/>
<path d="M16220 6075 c-87 -28 -138 -105 -148 -222 l-5 -63 -43 0 -44 0 0 -40
0 -40 45 0 45 0 0 -270 0 -270 55 0 55 0 0 270 0 270 75 0 75 0 0 40 0 40 -75
0 -75 0 0 52 c0 67 31 132 71 148 16 7 49 10 74 8 32 -4 45 -2 49 9 9 22 7 61
-2 67 -22 14 -111 14 -152 1z"/>
<path d="M12620 5625 l0 -455 55 0 55 0 0 455 0 455 -55 0 -55 0 0 -455z"/>
<path d="M12920 5625 l0 -455 55 0 55 0 0 455 0 455 -55 0 -55 0 0 -455z"/>
<path d="M24380 5625 l0 -455 55 0 55 0 0 455 0 455 -55 0 -55 0 0 -455z"/>
<path d="M3415 6043 c-22 -2 -55 -6 -72 -9 l-33 -5 0 -429 0 -430 55 0 55 0 0
191 0 192 79 -5 c90 -5 135 -26 164 -76 14 -23 87 -275 87 -299 0 -2 27 -3 60
-3 55 0 60 2 52 18 -5 9 -21 64 -36 122 -46 179 -53 196 -103 240 -45 39 -45
40 -21 49 101 38 158 168 124 283 -38 130 -169 182 -411 161z m231 -104 c78
-37 105 -134 62 -219 -34 -66 -87 -90 -200 -90 l-88 0 0 164 0 165 33 4 c58 9
150 -3 193 -24z"/>
<path d="M4292 6035 c-155 -35 -262 -128 -314 -273 -30 -84 -30 -244 0 -332
41 -120 119 -198 240 -242 68 -25 246 -28 327 -6 49 13 50 14 47 48 -4 48 -14
54 -59 39 -21 -8 -80 -13 -133 -13 -117 0 -178 23 -243 93 -68 73 -90 142 -85
271 3 90 7 113 31 162 69 140 236 208 405 164 35 -9 65 -16 67 -16 9 0 26 73
19 80 -36 32 -209 46 -302 25z"/>
<path d="M5312 6035 c-155 -35 -262 -128 -314 -273 -30 -84 -30 -244 0 -332
41 -120 119 -198 240 -242 68 -25 246 -28 327 -6 49 13 50 14 47 48 -4 48 -14
54 -59 39 -21 -8 -80 -13 -133 -13 -117 0 -178 23 -243 93 -68 73 -90 142 -85
271 3 90 7 113 31 162 69 140 236 208 405 164 35 -9 65 -16 67 -16 9 0 26 73
19 80 -36 32 -209 46 -302 25z"/>
<path d="M18143 6040 c-71 -13 -141 -41 -195 -78 -224 -154 -235 -558 -20
-718 76 -55 167 -79 297 -77 72 1 134 8 180 20 l70 19 3 207 2 207 -140 0
-140 0 0 -45 0 -45 85 0 85 0 0 -130 0 -130 -27 -7 c-16 -5 -71 -8 -123 -7
-117 0 -178 24 -243 93 -67 72 -90 142 -85 266 3 81 9 111 30 156 29 63 81
120 136 148 86 43 232 51 329 17 l40 -14 12 36 c9 32 8 39 -6 50 -42 31 -198
48 -290 32z"/>
<path d="M28215 6044 c-22 -2 -59 -7 -82 -10 l-43 -5 0 -429 0 -428 96 -7
c398 -30 605 127 605 460 0 109 -14 169 -54 237 -48 82 -136 144 -237 167 -51
12 -224 21 -285 15z m286 -111 c66 -30 123 -85 150 -146 21 -45 24 -67 24
-167 -1 -137 -21 -201 -87 -269 -67 -71 -131 -94 -270 -99 l-118 -4 0 349 c0
192 3 353 8 357 4 4 61 6 127 4 95 -3 130 -8 166 -25z"/>
<path d="M2599 5605 l-147 -435 57 0 56 0 45 138 45 137 155 0 155 0 46 -135
46 -135 58 -3 c44 -2 56 0 53 10 -3 7 -69 203 -148 436 l-143 422 -66 0 -66 0
-146 -435z m221 308 c0 -11 94 -309 117 -370 4 -10 -25 -13 -127 -13 -106 0
-131 3 -127 13 20 52 107 331 112 360 7 35 25 43 25 10z"/>
<path d="M10200 5605 l0 -435 240 0 240 0 0 45 0 45 -185 0 -185 0 0 160 0
160 165 0 165 0 0 45 0 45 -165 0 -165 0 0 140 0 140 175 0 175 0 0 45 0 45
-230 0 -230 0 0 -435z"/>
<path d="M20285 6015 c-14 -13 -25 -33 -25 -45 0 -27 43 -70 70 -70 27 0 70
43 70 70 0 27 -43 70 -70 70 -11 0 -32 -11 -45 -25z"/>
<path d="M22055 6015 c-14 -13 -25 -33 -25 -45 0 -27 43 -70 70 -70 27 0 70
43 70 70 0 27 -43 70 -70 70 -11 0 -32 -11 -45 -25z"/>
<path d="M24941 5610 c60 -236 109 -432 109 -435 0 -3 26 -5 58 -5 l58 0 82
308 c45 169 88 334 96 367 10 48 14 55 19 35 3 -14 22 -99 42 -190 20 -91 55
-244 78 -340 l42 -175 57 -3 c56 -3 56 -3 67 30 22 70 231 819 231 828 0 6
-24 10 -53 10 l-54 0 -10 -42 c-6 -24 -45 -178 -86 -343 -42 -165 -79 -313
-82 -330 -6 -24 -13 -2 -35 105 -15 74 -53 242 -84 373 l-58 237 -57 0 -57 0
-21 -82 c-11 -46 -50 -200 -86 -343 -37 -143 -69 -273 -73 -290 -7 -28 -8 -25
-20 30 -8 33 -46 201 -86 373 l-71 312 -58 0 -57 0 109 -430z"/>
<path d="M28945 6015 c-14 -13 -25 -33 -25 -45 0 -27 43 -70 70 -70 27 0 70
43 70 70 0 27 -43 70 -70 70 -11 0 -32 -11 -45 -25z"/>
<path d="M7158 5948 l-38 -10 0 -74 0 -74 -45 0 -45 0 0 -40 0 -40 44 0 44 0
4 -217 c2 -161 7 -225 17 -243 39 -70 96 -97 188 -85 l53 6 0 43 0 42 -35 -4
c-53 -6 -83 5 -100 38 -12 23 -15 69 -15 225 l0 195 80 0 80 0 0 40 0 40 -80
0 -80 0 0 85 c0 94 2 93 -72 73z"/>
<path d="M20638 5948 l-38 -10 0 -74 0 -74 -45 0 -45 0 0 -40 0 -40 44 0 44 0
4 -217 c2 -161 7 -225 17 -243 39 -70 96 -97 188 -85 l53 6 0 43 0 42 -35 -4
c-53 -6 -83 5 -100 38 -12 23 -15 69 -15 225 l0 195 80 0 80 0 0 40 0 40 -80
0 -80 0 0 85 c0 94 2 93 -72 73z"/>
<path d="M21678 5948 l-38 -10 0 -74 0 -74 -45 0 -45 0 0 -40 0 -40 44 0 44 0
4 -217 c2 -161 7 -225 17 -243 39 -70 96 -97 188 -85 l53 6 0 43 0 42 -35 -4
c-53 -6 -83 5 -100 38 -12 23 -15 69 -15 225 l0 195 80 0 80 0 0 40 0 40 -80
0 -80 0 0 85 c0 94 2 93 -72 73z"/>
<path d="M5901 5781 c-69 -24 -99 -47 -138 -105 -101 -148 -72 -375 58 -461
66 -43 156 -60 253 -47 44 6 94 15 109 21 26 10 28 14 22 44 -4 17 -8 33 -9
34 -1 2 -36 -4 -77 -13 -111 -23 -210 -3 -261 53 -24 27 -48 87 -48 122 l0 31
218 2 217 3 -2 68 c-5 152 -92 250 -230 262 -42 4 -73 0 -112 -14z m159 -79
c39 -21 80 -89 80 -134 l0 -28 -165 0 c-183 0 -179 -2 -150 68 42 98 146 140
235 94z"/>
<path d="M6617 5784 c-28 -9 -64 -31 -87 -54 -42 -42 -50 -38 -50 26 0 34 0
34 -47 34 l-48 0 3 -310 3 -310 54 0 55 0 0 206 c0 230 5 254 66 301 66 50
159 37 208 -30 20 -26 21 -44 24 -253 l3 -224 55 0 54 0 0 215 c0 227 -7 275
-52 335 -47 64 -153 92 -241 64z"/>
<path d="M7721 5778 c-28 -13 -54 -37 -71 -65 -26 -40 -28 -41 -34 -21 -3 13
-6 40 -6 61 l0 37 -45 0 -45 0 0 -310 0 -310 54 0 55 0 3 203 c3 225 8 243 73
292 25 20 47 27 80 27 l45 1 0 54 0 53 -32 0 c-18 0 -53 -10 -77 -22z"/>
<path d="M8081 5781 c-69 -24 -99 -47 -138 -105 -101 -148 -72 -375 58 -461
66 -43 156 -60 253 -47 44 6 94 15 109 21 26 10 28 14 22 44 -4 17 -8 33 -9
34 -1 2 -36 -4 -77 -13 -111 -23 -210 -3 -261 53 -24 27 -48 87 -48 122 l0 31
218 2 217 3 -2 68 c-5 152 -92 250 -230 262 -42 4 -73 0 -112 -14z m159 -79
c39 -21 80 -89 80 -134 l0 -28 -165 0 c-183 0 -179 -2 -150 68 42 98 146 140
235 94z"/>
<path d="M9020 5787 c-93 -26 -148 -76 -192 -173 -31 -68 -31 -208 -1 -275 51
-114 146 -174 273 -173 174 1 288 112 298 290 8 147 -43 253 -148 307 -66 33
-162 43 -230 24z m181 -101 c80 -53 114 -209 69 -314 -41 -95 -130 -147 -210
-123 -51 15 -95 53 -123 105 -31 58 -31 193 0 251 57 109 170 143 264 81z"/>
<path d="M11614 5790 c-166 -35 -269 -182 -249 -354 13 -118 72 -205 169 -247
61 -27 184 -32 259 -10 47 13 49 15 43 44 -3 16 -6 35 -6 43 0 11 -8 10 -41
-1 -57 -21 -145 -19 -195 4 -173 79 -159 372 22 431 32 11 111 10 188 -2 14
-2 22 7 32 34 l13 37 -37 11 c-54 15 -151 20 -198 10z"/>
<path d="M12121 5781 c-69 -24 -99 -47 -138 -105 -101 -148 -72 -375 58 -461
66 -43 156 -60 253 -47 44 6 94 15 109 21 26 10 28 14 22 44 -4 17 -8 33 -9
34 -1 2 -36 -4 -77 -13 -111 -23 -210 -3 -261 53 -24 27 -48 87 -48 122 l0 31
218 2 217 3 -2 68 c-5 152 -92 250 -230 262 -42 4 -73 0 -112 -14z m159 -79
c39 -21 80 -89 80 -134 l0 -28 -165 0 c-183 0 -179 -2 -150 68 42 98 146 140
235 94z"/>
<path d="M13371 5781 c-69 -24 -99 -47 -138 -105 -101 -148 -72 -375 58 -461
66 -43 156 -60 253 -47 44 6 94 15 109 21 26 10 28 14 22 44 -4 17 -8 33 -9
34 -1 2 -36 -4 -77 -13 -111 -23 -210 -3 -261 53 -24 27 -48 87 -48 122 l0 31
218 2 217 3 -2 68 c-5 152 -92 250 -230 262 -42 4 -73 0 -112 -14z m159 -79
c39 -21 80 -89 80 -134 l0 -28 -165 0 c-183 0 -179 -2 -150 68 42 98 146 140
235 94z"/>
<path d="M14097 5784 c-28 -9 -64 -31 -87 -54 -42 -42 -50 -38 -50 26 0 34 0
34 -47 34 l-48 0 3 -310 3 -310 54 0 55 0 0 206 c0 230 5 254 66 301 66 50
159 37 208 -30 20 -26 21 -44 24 -253 l3 -224 55 0 54 0 0 215 c0 227 -7 275
-52 335 -47 64 -153 92 -241 64z"/>
<path d="M14784 5790 c-166 -35 -269 -182 -249 -354 13 -118 72 -205 169 -247
61 -27 184 -32 259 -10 47 13 49 15 43 44 -3 16 -6 35 -6 43 0 11 -8 10 -41
-1 -57 -21 -145 -19 -195 4 -173 79 -159 372 22 431 32 11 111 10 188 -2 14
-2 22 7 32 34 l13 37 -37 11 c-54 15 -151 20 -198 10z"/>
<path d="M15301 5781 c-69 -24 -99 -47 -138 -105 -101 -148 -72 -375 58 -461
66 -43 156 -60 253 -47 44 6 94 15 109 21 26 10 28 14 22 44 -4 17 -8 33 -9
34 -1 2 -36 -4 -77 -13 -111 -23 -210 -3 -261 53 -24 27 -48 87 -48 122 l0 31
218 2 217 3 -2 68 c-5 152 -92 250 -230 262 -42 4 -73 0 -112 -14z m159 -79
c39 -21 80 -89 80 -134 l0 -28 -165 0 c-183 0 -179 -2 -150 68 42 98 146 140
235 94z"/>
<path d="M16590 5787 c-93 -26 -148 -76 -192 -173 -31 -68 -31 -208 -1 -275
51 -114 146 -174 273 -173 174 1 288 112 298 290 8 147 -43 253 -148 307 -66
33 -162 43 -230 24z m181 -101 c80 -53 114 -209 69 -314 -41 -95 -130 -147
-210 -123 -51 15 -95 53 -123 105 -31 58 -31 193 0 251 57 109 170 143 264 81z"/>
<path d="M17311 5778 c-28 -13 -54 -37 -71 -65 -26 -40 -28 -41 -34 -21 -3 13
-6 40 -6 61 l0 37 -45 0 -45 0 0 -310 0 -310 54 0 55 0 3 203 c3 225 8 243 73
292 25 20 47 27 80 27 l45 1 0 54 0 53 -32 0 c-18 0 -53 -10 -77 -22z"/>
<path d="M18841 5778 c-28 -13 -54 -37 -71 -65 -26 -40 -28 -41 -34 -21 -3 13
-6 40 -6 61 l0 37 -45 0 -45 0 0 -310 0 -310 54 0 55 0 3 203 c3 225 8 243 73
292 25 20 47 27 80 27 l45 1 0 54 0 53 -32 0 c-18 0 -53 -10 -77 -22z"/>
<path d="M19174 5790 c-102 -21 -134 -50 -101 -93 11 -15 16 -15 67 3 127 45
220 8 237 -92 4 -31 2 -36 -18 -41 -13 -4 -42 -7 -64 -7 -100 -1 -218 -55
-257 -117 -32 -52 -33 -158 -2 -200 70 -95 205 -107 309 -27 l43 33 7 -40 c7
-39 7 -39 53 -39 l47 0 -3 202 c-1 112 -7 226 -13 255 -21 104 -85 158 -199
167 -36 3 -83 1 -106 -4z m206 -371 c0 -88 -23 -132 -84 -160 -96 -44 -176 -2
-176 92 0 85 75 135 208 138 l52 1 0 -71z"/>
<path d="M21124 5790 c-102 -21 -134 -50 -101 -93 11 -15 16 -15 67 3 127 45
220 8 237 -92 4 -31 2 -36 -18 -41 -13 -4 -42 -7 -64 -7 -100 -1 -218 -55
-257 -117 -32 -52 -33 -158 -2 -200 70 -95 205 -107 309 -27 l43 33 7 -40 c7
-39 7 -39 53 -39 l47 0 -3 202 c-1 112 -7 226 -13 255 -21 104 -85 158 -199
167 -36 3 -83 1 -106 -4z m206 -371 c0 -88 -23 -132 -84 -160 -96 -44 -176 -2
-176 92 0 85 75 135 208 138 l52 1 0 -71z"/>
<path d="M22520 5787 c-93 -26 -148 -76 -192 -173 -31 -68 -31 -208 -1 -275
51 -114 146 -174 273 -173 174 1 288 112 298 290 8 147 -43 253 -148 307 -66
33 -162 43 -230 24z m181 -101 c80 -53 114 -209 69 -314 -41 -95 -130 -147
-210 -123 -51 15 -95 53 -123 105 -31 58 -31 193 0 251 57 109 170 143 264 81z"/>
<path d="M23277 5784 c-28 -9 -64 -31 -87 -54 -42 -42 -50 -38 -50 26 0 34 0
34 -47 34 l-48 0 3 -310 3 -310 54 0 55 0 0 206 c0 230 5 254 66 301 66 50
159 37 208 -30 20 -26 21 -44 24 -253 l3 -224 55 0 54 0 0 215 c0 227 -7 275
-52 335 -47 64 -153 92 -241 64z"/>
<path d="M23884 5790 c-102 -21 -134 -50 -101 -93 11 -15 16 -15 67 3 127 45
220 8 237 -92 4 -31 2 -36 -18 -41 -13 -4 -42 -7 -64 -7 -100 -1 -218 -55
-257 -117 -32 -52 -33 -158 -2 -200 70 -95 205 -107 309 -27 l43 33 7 -40 c7
-39 7 -39 53 -39 l47 0 -3 202 c-1 112 -7 226 -13 255 -21 104 -85 158 -199
167 -36 3 -83 1 -106 -4z m206 -371 c0 -88 -23 -132 -84 -160 -96 -44 -176 -2
-176 92 0 85 75 135 208 138 l52 1 0 -71z"/>
<path d="M26074 5790 c-102 -21 -134 -50 -101 -93 11 -15 16 -15 67 3 127 45
220 8 237 -92 4 -31 2 -36 -18 -41 -13 -4 -42 -7 -64 -7 -100 -1 -218 -55
-257 -117 -32 -52 -33 -158 -2 -200 70 -95 205 -107 309 -27 l43 33 7 -40 c7
-39 7 -39 53 -39 l47 0 -3 202 c-1 112 -7 226 -13 255 -21 104 -85 158 -199
167 -36 3 -83 1 -106 -4z m206 -371 c0 -88 -23 -132 -84 -160 -96 -44 -176 -2
-176 92 0 85 75 135 208 138 l52 1 0 -71z"/>
<path d="M27321 5781 c-69 -24 -99 -47 -138 -105 -101 -148 -72 -375 58 -461
66 -43 156 -60 253 -47 44 6 94 15 109 21 26 10 28 14 22 44 -4 17 -8 33 -9
34 -1 2 -36 -4 -77 -13 -111 -23 -210 -3 -261 53 -24 27 -48 87 -48 122 l0 31
218 2 217 3 -2 68 c-5 152 -92 250 -230 262 -42 4 -73 0 -112 -14z m159 -79
c39 -21 80 -89 80 -134 l0 -28 -165 0 c-183 0 -179 -2 -150 68 42 98 146 140
235 94z"/>
<path d="M29339 5784 c-55 -17 -103 -66 -120 -124 -26 -86 32 -165 152 -210
81 -31 119 -67 119 -114 0 -92 -116 -121 -251 -62 -13 6 -20 -1 -29 -30 -16
-47 -5 -57 85 -74 94 -18 197 2 249 48 26 23 56 90 56 126 0 46 -37 111 -78
138 -20 13 -63 35 -95 47 -85 35 -107 55 -107 100 0 58 36 86 108 85 32 0 71
-8 89 -17 l32 -17 12 41 c15 48 10 53 -64 69 -63 13 -102 12 -158 -6z"/>
<path d="M29954 5790 c-166 -35 -269 -182 -249 -354 13 -118 72 -205 169 -247
61 -27 184 -32 259 -10 47 13 49 15 43 44 -3 16 -6 35 -6 43 0 11 -8 10 -41
-1 -57 -21 -145 -19 -195 4 -173 79 -159 372 22 431 32 11 111 10 188 -2 14
-2 22 7 32 34 l13 37 -37 11 c-54 15 -151 20 -198 10z"/>
<path d="M30490 5787 c-93 -26 -148 -76 -192 -173 -31 -68 -31 -208 -1 -275
51 -114 146 -174 273 -173 174 1 288 112 298 290 8 147 -43 253 -148 307 -66
33 -162 43 -230 24z m181 -101 c80 -53 114 -209 69 -314 -41 -95 -130 -147
-210 -123 -51 15 -95 53 -123 105 -31 58 -31 193 0 251 57 109 170 143 264 81z"/>
<path d="M31771 5781 c-69 -24 -99 -47 -138 -105 -101 -148 -72 -375 58 -461
66 -43 156 -60 253 -47 44 6 94 15 109 21 26 10 28 14 22 44 -4 17 -8 33 -9
34 -1 2 -36 -4 -77 -13 -111 -23 -210 -3 -261 53 -24 27 -48 87 -48 122 l0 31
218 2 217 3 -2 68 c-5 152 -92 250 -230 262 -42 4 -73 0 -112 -14z m159 -79
c39 -21 80 -89 80 -134 l0 -28 -165 0 c-183 0 -179 -2 -150 68 42 98 146 140
235 94z"/>
<path d="M32451 5778 c-28 -13 -54 -37 -71 -65 -26 -40 -28 -41 -34 -21 -3 13
-6 40 -6 61 l0 37 -45 0 -45 0 0 -310 0 -310 54 0 55 0 3 203 c3 225 8 243 73
292 25 20 47 27 80 27 l45 1 0 54 0 53 -32 0 c-18 0 -53 -10 -77 -22z"/>
<path d="M10760 5784 c0 -3 45 -71 100 -150 59 -85 98 -150 94 -157 -4 -7 -52
-76 -106 -154 -54 -78 -98 -144 -98 -147 0 -3 26 -6 58 -6 52 0 59 3 73 28 52
88 131 207 139 207 4 0 43 -53 85 -117 l77 -118 59 0 c62 0 67 4 45 29 -7 9
-55 78 -105 154 l-93 137 106 151 106 150 -62 -3 -62 -3 -71 -112 c-38 -62
-72 -113 -75 -113 -3 0 -39 52 -80 115 l-75 115 -57 0 c-32 0 -58 -3 -58 -6z"/>
<path d="M19677 5568 c47 -123 99 -261 117 -308 l32 -85 54 0 54 0 118 300
c65 165 118 303 118 308 0 4 -24 7 -54 7 l-54 0 -48 -137 c-26 -76 -66 -191
-89 -255 l-41 -118 -46 138 c-26 75 -65 190 -88 255 l-42 117 -58 0 -58 0 85
-222z"/>
<path d="M20280 5480 l0 -310 55 0 55 0 0 310 0 310 -55 0 -55 0 0 -310z"/>
<path d="M22050 5480 l0 -310 55 0 55 0 0 310 0 310 -55 0 -55 0 0 -310z"/>
<path d="M26577 5568 c47 -123 99 -261 117 -308 l32 -85 54 0 54 0 118 300
c65 165 118 303 118 308 0 4 -24 7 -54 7 l-54 0 -48 -137 c-26 -76 -66 -191
-89 -255 l-41 -118 -46 138 c-26 75 -65 190 -88 255 l-42 117 -58 0 -58 0 85
-222z"/>
<path d="M28940 5480 l0 -310 55 0 55 0 0 310 0 310 -55 0 -55 0 0 -310z"/>
<path d="M31017 5568 c47 -123 99 -261 117 -308 l32 -85 54 0 54 0 118 300
c65 165 118 303 118 308 0 4 -24 7 -54 7 l-54 0 -48 -137 c-26 -76 -66 -191
-89 -255 l-41 -118 -46 138 c-26 75 -65 190 -88 255 l-42 117 -58 0 -58 0 85
-222z"/>
<path d="M32742 5489 l122 -302 -29 -54 c-30 -57 -85 -111 -141 -138 -39 -18
-38 -15 -22 -66 13 -45 17 -46 75 -19 74 33 136 106 197 231 43 89 256 626
256 646 0 2 -26 3 -57 1 l-58 -3 -80 -242 c-44 -133 -83 -242 -86 -243 -4 0
-10 15 -13 33 -4 17 -42 127 -84 242 l-78 210 -61 3 -62 3 121 -302z"/>
</g>
</svg>
