<?xml version="1.0" standalone="no"?>
<!DOCTYPE svg PUBLIC "-//W3C//DTD SVG 20010904//EN"
 "http://www.w3.org/TR/2001/REC-SVG-20010904/DTD/svg10.dtd">
<svg version="1.0" xmlns="http://www.w3.org/2000/svg"
 width="400.000000pt" height="400.000000pt" viewBox="0 0 400.000000 400.000000"
 preserveAspectRatio="xMidYMid meet">

<g transform="translate(0.000000,400.000000) scale(0.100000,-0.100000)"
fill="#000000" stroke="none">
<path d="M1940 3740 c-33 -20 -188 -109 -247 -140 -34 -19 -59 -39 -56 -44 4
-6 3 -8 -2 -4 -4 4 -22 0 -39 -9 -83 -42 -372 -208 -378 -217 -4 -6 -8 -8 -8
-4 0 4 -21 -5 -47 -21 -27 -15 -77 -45 -113 -65 -36 -20 -72 -41 -80 -46 -8
-5 -54 -31 -102 -58 -49 -27 -85 -52 -80 -57 4 -5 2 -5 -4 -2 -15 9 -166 -77
-156 -88 4 -5 2 -5 -5 -2 -6 4 -40 -9 -75 -29 -78 -44 -89 -54 -81 -67 3 -6 1
-7 -5 -3 -6 4 -18 -6 -27 -23 -13 -26 -15 -132 -15 -866 0 -919 -2 -881 60
-919 17 -9 35 -14 40 -11 6 4 9 2 8 -4 -3 -10 27 -28 172 -107 19 -10 37 -21
40 -25 17 -19 424 -238 433 -232 5 3 7 2 4 -4 -3 -5 26 -27 66 -48 40 -21 112
-63 161 -92 48 -29 93 -50 99 -46 5 3 7 2 4 -4 -8 -12 61 -46 75 -37 6 4 8 3
5 -3 -6 -9 45 -39 307 -185 38 -21 82 -38 97 -38 29 0 187 81 201 103 4 7 8 9
8 5 0 -8 79 36 523 288 125 71 242 137 260 147 133 72 172 97 169 107 -1 6 2
9 7 6 14 -9 61 15 54 27 -3 6 -1 7 4 4 11 -7 252 124 263 144 4 6 10 10 14 10
19 -3 26 2 45 33 21 34 21 36 19 887 -3 836 -3 855 -23 880 -11 15 -40 38 -65
50 -24 13 -51 30 -59 37 -7 7 -20 11 -27 8 -8 -3 -14 -1 -14 3 0 15 -211 132
-223 124 -7 -3 -9 -2 -4 2 10 11 -70 58 -85 49 -6 -4 -8 -3 -5 3 7 12 -40 36
-54 27 -5 -3 -8 0 -7 6 2 7 -31 31 -73 53 -42 23 -132 74 -200 113 -194 112
-539 305 -594 333 -27 14 -52 29 -55 32 -22 27 -99 38 -130 19z m-93 -993 c6
0 9 -6 6 -13 -2 -6 0 -15 6 -19 16 -9 13 -19 -9 -33 -17 -10 -23 -9 -40 8 -21
21 -40 19 -40 -3 0 -7 22 -25 48 -42 41 -26 47 -35 50 -67 4 -53 -33 -91 -86
-86 -46 3 -81 40 -62 63 16 19 28 19 46 0 12 -11 20 -12 35 -4 26 13 20 30
-17 49 -16 8 -36 23 -45 32 -9 10 -18 16 -20 13 -3 -2 -5 18 -4 44 0 27 2 48
5 46 3 -2 16 3 30 11 15 8 37 12 55 8 17 -3 35 -6 42 -7z m388 -214 c-24 -36
-58 -48 -95 -33 -17 7 -34 18 -38 24 -4 6 -9 59 -12 119 l-5 107 28 0 27 0 0
-94 c0 -72 4 -96 15 -106 26 -21 33 0 36 100 3 93 4 95 28 100 l26 5 3 -99 c2
-77 -1 -104 -13 -123z m-1275 118 c0 -75 3 -100 14 -104 27 -11 36 17 36 110
l0 93 29 0 c22 0 28 -4 26 -17 -2 -10 -4 -58 -4 -106 -1 -79 -3 -90 -26 -112
-30 -31 -69 -32 -105 -2 -27 23 -28 27 -29 130 l-2 107 30 0 31 0 0 -99z m207
87 c-2 -24 15 -129 21 -124 2 3 10 34 16 68 11 61 12 63 43 66 30 3 31 2 38
-50 4 -29 11 -62 16 -73 7 -19 8 -19 8 2 1 12 6 45 12 73 10 45 13 50 38 50
l27 0 -25 -125 -26 -125 -31 0 c-32 0 -32 0 -45 73 l-13 72 -12 -61 c-15 -85
-18 -90 -50 -89 -28 2 -28 4 -50 111 -30 144 -30 144 5 144 17 0 28 -5 28 -12z
m376 -105 c15 -65 27 -123 27 -129 0 -19 -52 -3 -57 17 -7 25 -50 25 -58 0 -7
-24 -55 -35 -55 -13 0 8 12 66 27 128 l27 114 31 0 32 0 26 -117z m499 92 c-3
-18 -11 -25 -28 -25 -24 0 -24 -1 -24 -106 0 -93 -2 -105 -16 -100 -9 3 -20 6
-25 6 -5 0 -9 45 -9 100 0 93 -1 100 -20 100 -15 0 -20 7 -20 25 0 24 2 25 74
25 73 0 73 0 68 -25z m406 4 c39 -41 43 -140 9 -190 -17 -25 -32 -35 -61 -40
-76 -12 -76 -12 -76 127 l0 124 55 0 c42 0 59 -5 73 -21z m228 -1 c-2 -19 -10
-24 -45 -26 -39 -3 -42 -5 -39 -30 2 -22 8 -27 32 -27 20 -1 32 -7 36 -20 11
-28 4 -35 -36 -35 -27 0 -34 -4 -34 -20 0 -17 7 -20 45 -20 43 0 46 -1 42 -26
-3 -25 -5 -26 -73 -26 l-69 0 -2 126 -3 126 75 0 c72 0 75 -1 71 -22z m146
-41 l27 -62 1 63 c0 59 1 62 24 62 l25 0 3 -125 3 -125 -28 0 c-24 0 -31 8
-57 63 l-29 62 0 -61 c-1 -68 -4 -74 -32 -67 -17 5 -19 15 -19 129 l0 124 28
0 c24 0 30 -8 54 -63z m270 38 c-3 -16 -11 -25 -23 -25 -17 0 -19 -9 -19 -103
l0 -104 -30 5 -30 4 0 99 c0 92 -1 99 -20 99 -15 0 -20 7 -20 25 0 24 2 25 74
25 73 0 73 0 68 -25z m-1921 -358 c15 -7 40 -23 55 -37 34 -29 79 -90 67 -90
-4 0 -3 -4 4 -8 19 -12 2 -27 -74 -66 l-73 -36 -6 24 c-8 31 -39 60 -55 50 -8
-4 -10 -3 -5 4 13 21 -11 13 -36 -13 -31 -31 -38 -69 -38 -205 0 -107 14 -185
30 -175 6 3 7 -1 4 -9 -5 -14 1 -18 22 -15 4 0 10 -5 14 -11 6 -9 14 -9 35 1
15 8 28 19 27 24 0 6 3 15 8 20 4 6 10 24 12 40 3 27 0 30 -29 33 l-33 3 0 70
0 69 116 0 117 0 -6 -112 c-6 -132 -30 -208 -79 -255 -50 -46 -90 -63 -155
-63 -81 0 -124 14 -163 55 -18 19 -38 31 -44 28 -6 -3 -8 -3 -4 2 4 4 -1 24
-11 44 -30 58 -45 148 -44 266 1 128 21 221 61 280 14 22 27 43 27 48 0 4 5 8
10 9 6 0 28 9 50 19 46 22 156 25 196 6z m409 -262 c0 -301 3 -317 57 -311 19
2 38 7 43 12 5 5 11 133 12 284 l3 275 93 3 94 3 -4 -293 c-3 -272 -4 -296
-24 -338 -11 -25 -28 -51 -37 -59 -9 -7 -14 -18 -10 -25 3 -6 3 -8 -1 -4 -5 4
-25 -2 -46 -13 -89 -47 -210 -33 -284 32 -72 63 -76 86 -76 416 l0 283 90 0
90 0 0 -265z m580 -110 l0 -375 -90 0 c-89 0 -90 0 -90 25 0 14 0 180 0 370 0
190 0 347 0 350 0 3 41 5 90 5 l90 0 0 -375z m280 90 l0 -285 90 0 90 0 0 -90
0 -90 -181 2 -181 3 1 370 c0 204 1 371 1 373 0 1 41 2 90 2 l90 0 0 -285z
m536 270 c28 -8 65 -29 84 -47 18 -18 30 -26 25 -18 -4 8 -5 12 -1 8 4 -3 8
-10 8 -15 0 -4 11 -27 24 -49 54 -92 67 -283 29 -410 -8 -26 -11 -52 -8 -58 3
-6 2 -8 -2 -3 -5 4 -16 -3 -24 -16 -36 -54 -70 -85 -104 -98 -20 -7 -34 -16
-32 -19 2 -4 -63 -8 -146 -9 l-149 -2 0 375 0 376 123 0 c80 0 141 -5 173 -15z
m179 -940 l0 -30 -1159 0 c-1071 0 -1160 1 -1169 17 -8 12 -7 21 2 32 12 15
124 16 1170 14 l1156 -3 0 -30z m-1216 -202 c15 -33 14 -58 -4 -73 -13 -11
-13 -15 0 -41 20 -38 19 -49 -6 -49 -14 0 -24 10 -32 30 -6 17 -15 30 -19 30
-4 0 -8 -13 -8 -30 0 -23 -4 -30 -20 -30 -19 0 -20 7 -20 90 0 50 0 93 -1 98
-1 13 45 18 73 8 14 -5 31 -20 37 -33z m315 26 c25 -5 49 -74 41 -117 -9 -48
-37 -72 -85 -72 l-40 0 0 99 0 100 28 3 c15 2 29 0 32 -3 3 -4 14 -8 24 -10z
m536 -10 c0 -11 -7 -19 -16 -19 -13 0 -15 -13 -13 -77 2 -73 1 -78 -19 -81
-21 -3 -22 0 -22 77 0 74 -2 81 -20 81 -26 0 -26 28 1 38 11 4 36 6 55 4 25
-3 34 -9 34 -23z m-1731 15 c34 -7 53 -33 55 -74 1 -27 -24 -52 -62 -64 -16
-6 -22 -14 -20 -29 2 -16 -3 -23 -19 -25 -23 -3 -23 -1 -23 97 0 111 -2 109
69 95z m205 -3 c-2 -2 3 -13 11 -25 27 -38 15 -135 -19 -158 -6 -4 -23 -8 -38
-8 -40 0 -63 41 -62 108 0 65 25 93 79 89 18 -1 32 -4 29 -6z m171 -11 c15
-16 16 -22 5 -35 -12 -14 -15 -14 -30 0 -15 14 -30 11 -30 -4 0 -4 16 -15 35
-25 34 -19 40 -30 35 -71 -5 -48 -59 -61 -101 -25 -21 17 -22 21 -9 30 8 5 22
7 30 4 26 -10 32 -9 37 3 3 7 -12 22 -31 34 -30 17 -36 27 -36 54 0 53 59 75
95 35z m165 0 c0 -13 -7 -20 -20 -20 -19 0 -21 -6 -19 -75 2 -81 -1 -91 -26
-82 -12 5 -15 23 -15 82 0 60 -3 75 -15 75 -8 0 -15 9 -15 20 0 18 7 20 55 20
48 0 55 -2 55 -20z m151 -1 c20 -20 20 -21 3 -34 -15 -10 -20 -10 -32 1 -18
19 -30 18 -36 -3 -8 -27 -4 -83 6 -83 5 0 6 -4 3 -10 -3 -5 0 -10 8 -10 18 0
30 27 15 32 -6 2 -12 11 -14 20 -1 12 8 17 33 20 l35 4 -6 -45 c-4 -25 -7 -50
-8 -56 -1 -5 -20 -11 -44 -13 -35 -2 -45 1 -58 20 -18 25 -22 133 -6 143 6 4
7 11 4 17 -4 7 -2 8 4 4 7 -4 12 -2 12 3 0 19 59 12 81 -10z m348 -71 c12 -51
21 -96 21 -100 0 -15 -38 -8 -44 7 -3 8 -12 15 -21 15 -9 0 -18 -7 -21 -15 -7
-17 -44 -21 -44 -4 0 14 40 171 46 181 3 4 13 8 23 8 15 0 23 -18 40 -92z
m299 22 c3 -76 8 -94 22 -85 5 3 10 40 10 81 0 72 1 75 23 72 20 -3 22 -9 25
-80 2 -67 0 -80 -18 -98 -28 -28 -81 -24 -95 8 -5 12 -12 22 -15 22 -3 0 -4
34 -2 76 3 71 5 75 25 72 20 -3 22 -10 25 -68z m237 -20 c11 -47 23 -87 27
-88 5 -2 6 -8 2 -13 -9 -14 -44 -10 -50 6 -4 8 -15 15 -25 15 -10 0 -19 -7
-19 -15 0 -14 -31 -21 -42 -10 -3 3 2 36 12 73 9 37 20 80 24 95 5 22 12 28
29 25 18 -3 24 -16 42 -88z m318 71 c4 -16 -1 -20 -26 -23 -41 -4 -52 -38 -13
-38 16 0 26 -6 26 -15 0 -8 0 -18 0 -22 0 -4 -6 -8 -13 -9 -34 -3 -38 -5 -35
-16 3 -7 11 -13 19 -14 35 -2 39 -5 39 -24 0 -17 -7 -20 -49 -20 l-50 0 -3 96
c-2 53 -1 98 1 100 2 2 26 4 52 4 38 0 48 -4 52 -19z"/>
<path d="M1476 2629 c-9 -44 -8 -49 8 -49 11 0 13 9 9 38 -8 48 -9 49 -17 11z"/>
<path d="M2372 2628 c3 -80 18 -97 42 -49 18 33 21 76 6 66 -6 -4 -7 1 -3 11
6 16 -19 44 -39 44 -5 0 -8 -32 -6 -72z"/>
<path d="M2860 1994 l0 -205 33 3 c19 2 31 8 30 15 -2 7 2 12 9 10 7 -1 20 14
30 33 14 27 18 59 18 143 0 146 -27 207 -91 207 l-29 0 0 -206z"/>
<path d="M1870 1180 c0 -28 2 -30 20 -20 16 9 18 15 10 30 -16 29 -30 24 -30
-10z"/>
<path d="M2210 1154 c0 -47 3 -55 18 -52 33 6 25 108 -9 108 -5 0 -9 -25 -9
-56z"/>
<path d="M1032 1180 c2 -32 24 -41 34 -15 6 16 -12 45 -27 45 -5 0 -8 -13 -7
-30z"/>
<path d="M1207 1203 c-10 -10 -8 -86 2 -102 14 -22 41 5 41 41 0 47 -24 81
-43 61z"/>
<path d="M2052 1140 c0 -14 2 -19 5 -12 2 6 2 18 0 25 -3 6 -5 1 -5 -13z"/>
<path d="M2586 1141 c-4 -7 -5 -15 -2 -18 9 -9 19 4 14 18 -4 11 -6 11 -12 0z"/>
</g>
</svg>
