<?xml version="1.0" standalone="no"?>
<!DOCTYPE svg PUBLIC "-//W3C//DTD SVG 20010904//EN"
 "http://www.w3.org/TR/2001/REC-SVG-20010904/DTD/svg10.dtd">
<svg version="1.0" xmlns="http://www.w3.org/2000/svg"
 width="1564.000000pt" height="1564.000000pt" viewBox="0 0 1564.000000 1564.000000"
 preserveAspectRatio="xMidYMid meet">

<g transform="translate(0.000000,1564.000000) scale(0.100000,-0.100000)"
fill="#000000" stroke="none">
<path d="M4380 13875 c0 -925 4 -1572 10 -1678 36 -581 139 -1127 311 -1637
63 -187 122 -345 130 -345 3 0 660 606 1461 1347 801 741 1472 1361 1492 1378
l35 31 1493 -1381 1493 -1381 18 43 c36 84 127 350 171 497 117 389 200 829
236 1246 25 287 30 612 30 1958 l0 1427 -3440 0 -3440 0 0 -1505z m1245 875
c187 -22 389 -95 483 -175 l42 -37 0 -654 c0 -467 -3 -654 -11 -654 -6 0 -23
8 -37 19 -92 65 -274 131 -431 157 -145 23 -343 16 -458 -19 l-83 -24 0 668 0
668 52 16 c134 40 291 52 443 35z m1540 -22 l90 -23 3 -667 c1 -368 0 -668 -3
-668 -3 0 -37 9 -77 20 -247 67 -560 33 -803 -88 -38 -19 -82 -43 -97 -53 -14
-11 -29 -19 -32 -19 -3 0 -6 297 -6 659 l0 659 38 30 c96 76 260 141 420 167
128 21 351 13 467 -17z m1812 7 c146 -28 259 -73 366 -148 l57 -40 0 -664 0
-664 -27 19 c-100 70 -291 142 -446 167 -171 28 -309 19 -524 -32 l-23 -5 0
665 0 666 56 16 c59 17 133 31 199 39 69 7 259 -3 342 -19z m1438 -7 l90 -23
3 -669 2 -668 -22 6 c-96 27 -141 36 -228 46 -219 24 -500 -36 -694 -150 -37
-22 -70 -40 -72 -40 -2 0 -4 297 -4 659 l0 659 48 35 c113 82 250 136 410 162
130 21 352 13 467 -17z m-5375 -814 l0 -666 28 6 c224 47 517 55 682 19 135
-30 257 -77 358 -138 79 -48 89 -52 107 -39 111 78 266 143 416 175 145 31
419 31 592 0 66 -11 121 -21 123 -21 2 0 4 299 4 665 l0 665 50 0 50 0 2 -182
3 -183 73 -6 c77 -7 111 -23 138 -65 16 -24 16 -26 -5 -47 -20 -20 -31 -22
-116 -20 l-95 1 0 -212 0 -213 69 -6 c79 -6 123 -26 148 -64 17 -25 16 -26
-12 -51 -28 -23 -34 -24 -117 -19 l-88 6 0 -195 c0 -107 -4 -194 -8 -194 -4 0
-50 9 -102 21 -305 66 -575 66 -795 -2 -90 -27 -211 -87 -291 -144 l-63 -45
-53 40 c-79 61 -240 137 -353 166 -189 49 -451 45 -721 -11 -65 -14 -120 -25
-121 -25 -2 0 -3 88 -3 195 l0 195 -29 0 c-17 0 -34 -8 -42 -20 -11 -15 -30
-21 -87 -26 l-73 -7 3 99 3 99 70 8 c58 7 71 6 81 -7 6 -9 25 -16 43 -16 l31
0 0 215 0 215 -35 0 c-24 0 -35 -5 -35 -14 0 -21 -6 -23 -87 -31 l-73 -7 0
100 0 99 53 7 c84 10 107 8 107 -10 0 -11 8 -14 33 -12 l32 3 3 183 2 182 50
0 50 0 0 -666z m3250 0 l0 -666 28 6 c424 88 811 39 1072 -137 48 -33 56 -35
75 -23 178 117 335 173 550 197 144 16 374 1 558 -37 l27 -6 0 666 0 666 50 0
50 0 2 -182 3 -183 72 -6 c77 -7 124 -29 144 -66 11 -21 10 -26 -10 -46 -20
-20 -31 -22 -116 -20 l-95 2 0 -214 0 -215 43 0 c67 -1 130 -19 160 -47 62
-60 11 -99 -120 -90 l-83 6 0 -194 c0 -107 -1 -195 -3 -195 -1 0 -56 11 -121
25 -270 56 -534 60 -721 11 -112 -29 -273 -104 -354 -165 -30 -22 -59 -37 -65
-34 -6 4 -36 25 -66 48 -80 58 -219 121 -335 151 -190 50 -490 43 -743 -16
-46 -11 -88 -20 -93 -20 -5 0 -9 83 -9 195 0 186 -1 195 -19 195 -29 0 -51
-11 -51 -25 0 -12 -68 -25 -132 -25 l-28 0 0 94 c0 52 3 97 8 99 4 3 40 8 80
12 62 6 72 5 72 -9 0 -12 10 -16 35 -16 l35 0 0 215 0 215 -29 0 c-17 0 -34
-8 -42 -20 -11 -15 -28 -20 -84 -22 l-70 -3 -3 89 c-2 49 1 93 5 97 5 5 41 11
81 15 64 6 72 5 72 -10 0 -13 7 -17 33 -14 l32 3 3 183 2 182 50 0 50 0 0
-666z"/>
<path d="M5320 14365 c0 -20 45 -153 95 -277 4 -11 18 -18 35 -18 26 0 30 6
79 135 28 74 51 146 51 160 0 21 -5 25 -30 25 -24 0 -31 -5 -36 -27 -11 -52
-58 -193 -64 -193 -6 0 -59 164 -63 195 -1 15 -11 21 -35 23 -29 3 -32 1 -32
-23z"/>
<path d="M5627 14384 c-4 -4 -7 -77 -7 -161 l0 -154 33 3 32 3 0 155 0 155
-25 3 c-14 2 -29 0 -33 -4z"/>
<path d="M5728 14368 c-10 -26 4 -38 43 -38 l39 0 0 -131 0 -130 33 3 32 3 3
128 3 127 39 0 c36 0 40 3 40 25 l0 25 -114 0 c-82 0 -115 -4 -118 -12z"/>
<path d="M5356 13817 c-27 -78 -51 -148 -53 -154 -4 -9 6 -13 30 -13 31 0 36
4 42 30 6 29 8 30 64 30 54 0 57 -1 68 -30 9 -24 17 -30 42 -30 17 0 31 2 31
5 0 2 -25 72 -56 155 -56 149 -57 150 -88 150 -31 0 -31 0 -80 -143z m103 4
c17 -52 14 -61 -19 -61 -34 0 -35 3 -19 66 13 49 20 48 38 -5z"/>
<path d="M5627 13848 c-4 -62 -7 -132 -7 -155 0 -41 1 -43 30 -43 l29 0 3 88
3 87 27 -60 c39 -84 43 -90 64 -90 19 0 25 10 66 100 l23 50 3 -87 3 -88 29 0
30 0 0 73 c0 39 -3 109 -7 155 -6 78 -7 82 -30 82 -20 0 -29 -11 -53 -67 -17
-38 -38 -85 -48 -107 l-18 -39 -45 107 c-40 96 -46 106 -70 106 l-26 0 -6
-112z"/>
<path d="M6650 14377 c0 -8 18 -42 40 -76 l41 -63 -41 -60 c-49 -74 -53 -108
-11 -108 23 0 30 5 36 27 5 21 27 61 52 92 5 7 30 -29 54 -76 18 -36 25 -43
51 -43 28 0 30 2 23 28 -3 15 -24 53 -47 85 l-40 58 25 32 c28 37 57 91 57
107 0 5 -12 10 -27 10 -23 0 -33 -9 -55 -50 -16 -28 -32 -50 -36 -50 -4 0 -21
22 -37 50 -24 40 -35 50 -57 50 -17 0 -28 -5 -28 -13z"/>
<path d="M6984 14371 c-52 -23 -74 -68 -74 -148 0 -96 53 -153 142 -153 59 0
78 10 78 40 0 26 -1 27 -49 22 -60 -5 -86 8 -101 54 -16 46 -6 95 25 124 20
19 32 22 75 18 49 -5 50 -5 50 22 0 23 -5 29 -31 34 -49 9 -71 7 -115 -13z"/>
<path d="M6410 14225 l0 -156 98 3 c96 3 97 3 97 28 0 24 -3 25 -68 28 l-68 3
3 37 3 37 53 3 c48 3 52 5 52 28 0 23 -3 24 -55 24 l-55 0 0 35 0 35 65 0 c63
0 65 1 65 25 0 25 0 25 -95 25 l-95 0 0 -155z"/>
<path d="M6453 13950 c-29 -12 -53 -50 -64 -101 -31 -138 69 -246 178 -192 50
24 73 71 73 146 0 71 -22 122 -61 142 -31 16 -92 19 -126 5z m105 -68 c18 -23
16 -133 -4 -160 -15 -22 -48 -29 -71 -14 -29 19 -42 106 -23 157 16 43 69 52
98 17z"/>
<path d="M6680 13805 l0 -155 95 0 c95 0 95 0 95 25 0 24 -3 25 -60 25 l-60 0
0 130 0 130 -35 0 -35 0 0 -155z"/>
<path d="M6892 13838 c2 -73 9 -133 17 -146 31 -57 145 -66 192 -16 22 24 24
35 27 155 l4 129 -31 0 -31 0 0 -99 c0 -54 -5 -112 -11 -129 -12 -36 -45 -47
-76 -26 -22 14 -23 21 -23 134 l0 120 -36 0 -36 0 4 -122z"/>
<path d="M8807 14383 c-4 -3 -7 -75 -7 -160 l0 -153 30 0 30 0 0 60 c0 43 4
60 13 60 7 0 28 -27 47 -60 31 -54 37 -60 67 -60 18 0 33 3 33 8 0 4 -16 32
-35 62 l-34 55 25 26 c18 19 24 36 24 72 0 71 -38 97 -145 97 -23 0 -45 -3
-48 -7z m121 -65 c7 -7 12 -21 12 -33 0 -29 -19 -45 -52 -45 -27 0 -28 2 -28
45 0 43 1 45 28 45 15 0 33 -5 40 -12z"/>
<path d="M8550 14225 l0 -156 98 3 97 3 3 28 3 27 -65 0 -66 0 0 39 0 40 53 3
c44 3 52 6 52 23 0 17 -8 20 -52 23 l-53 3 0 35 0 34 59 0 c59 0 74 9 63 38
-3 8 -32 12 -98 12 l-94 0 0 -155z"/>
<path d="M9060 14225 l0 -155 95 0 95 0 0 30 0 30 -66 0 -65 0 3 38 3 37 53 3
c48 3 52 5 52 28 0 23 -3 24 -55 24 l-55 0 0 35 0 35 65 0 c63 0 65 1 65 25 0
25 0 25 -95 25 l-95 0 0 -155z"/>
<path d="M8550 13805 l0 -155 35 0 35 0 0 55 0 55 35 0 c82 0 129 61 105 136
-15 46 -56 64 -145 64 l-65 0 0 -155z m142 82 c24 -37 -3 -77 -51 -77 -18 0
-21 6 -21 43 0 24 3 47 7 51 10 10 56 -3 65 -17z"/>
<path d="M8810 13805 l0 -155 95 0 c95 0 95 0 95 25 0 24 -2 25 -65 25 l-65 0
0 40 0 40 55 0 c52 0 55 1 55 25 0 24 -3 25 -55 25 l-55 0 0 35 0 35 65 0 65
0 0 30 0 30 -95 0 -95 0 0 -155z"/>
<path d="M9050 13805 l0 -155 30 0 c30 0 30 1 30 55 0 41 4 55 14 55 8 0 28
-25 45 -55 29 -51 34 -55 67 -55 l36 0 -27 48 c-15 26 -31 51 -36 56 -4 5 3
22 16 38 27 31 34 93 15 128 -13 25 -62 40 -131 40 l-59 0 0 -155z m132 82
c21 -33 4 -64 -40 -73 l-32 -6 0 52 0 53 32 -7 c18 -3 36 -12 40 -19z"/>
<path d="M9830 14365 c-21 -54 -100 -284 -100 -289 0 -3 13 -6 30 -6 25 0 32
6 44 35 14 34 17 35 66 35 49 0 52 -1 66 -35 12 -29 19 -35 44 -35 17 0 30 4
30 10 0 5 -25 77 -56 160 -55 146 -57 150 -85 150 -22 0 -32 -6 -39 -25z m59
-114 c17 -52 14 -61 -19 -61 -34 0 -35 3 -18 65 13 49 19 48 37 -4z"/>
<path d="M10053 14383 c-10 -3 -13 -45 -13 -159 l0 -154 35 0 35 0 0 61 c0 75
12 74 58 -4 30 -52 36 -57 67 -57 19 0 35 2 35 5 0 2 -16 30 -36 60 l-35 56
25 30 c30 35 35 92 11 126 -24 34 -135 56 -182 36z m125 -86 c4 -35 -13 -57
-44 -57 -22 0 -24 4 -24 46 0 45 0 45 33 42 27 -2 33 -8 35 -31z"/>
<path d="M9644 13945 c-12 -30 4 -45 46 -45 l40 0 0 -125 0 -125 30 0 30 0 0
125 0 125 46 0 c44 0 45 1 42 28 l-3 27 -113 3 c-93 2 -113 0 -118 -13z"/>
<path d="M9917 13954 c-4 -4 -7 -74 -7 -156 l0 -148 100 0 100 0 0 25 c0 24
-2 25 -65 25 l-65 0 0 40 0 40 55 0 c52 0 55 1 55 25 0 24 -3 25 -55 25 l-55
0 0 35 0 34 63 3 c59 3 62 4 62 28 0 25 -1 25 -90 28 -50 1 -94 0 -98 -4z"/>
<path d="M10195 13948 c-32 -17 -45 -39 -45 -78 0 -43 16 -60 83 -89 26 -11
50 -27 53 -36 15 -38 -50 -58 -111 -35 -25 10 -26 9 -23 -22 3 -29 7 -33 43
-41 106 -22 182 40 153 126 -8 22 -25 35 -74 58 -68 30 -81 53 -40 68 13 5 42
7 65 4 39 -5 41 -4 41 20 0 13 -7 28 -16 31 -25 10 -107 6 -129 -6z"/>
<path d="M8630 11758 c-65 -207 -192 -441 -396 -730 -143 -201 -207 -329 -280
-557 -193 -607 -255 -772 -339 -907 -51 -81 -132 -174 -198 -226 l-40 -32 6
81 c8 103 41 249 112 493 147 502 183 664 192 855 14 310 -107 529 -330 597
-57 17 -86 20 -170 16 -127 -6 -207 -32 -412 -132 -192 -94 -264 -156 -326
-281 -37 -74 -42 -93 -47 -174 -5 -92 3 -121 34 -121 22 0 54 42 54 70 0 38
21 63 51 58 32 -4 36 -35 10 -84 -28 -52 -27 -98 1 -118 32 -22 120 -21 166 3
75 39 147 145 187 278 21 67 34 92 66 123 69 67 202 103 297 81 67 -17 115
-59 154 -138 28 -58 32 -75 32 -147 -1 -154 -74 -307 -294 -621 -331 -470
-463 -688 -519 -854 -159 -465 -21 -933 358 -1219 286 -215 663 -292 1087
-221 258 43 499 164 675 339 57 57 139 156 139 169 0 4 -34 13 -75 20 -100 16
-201 51 -294 102 -76 41 -211 142 -211 158 0 5 11 12 25 15 14 4 42 24 63 45
31 31 46 39 89 44 56 6 118 34 145 64 24 26 56 101 64 150 4 28 15 47 34 61
32 24 70 97 70 135 0 21 11 33 53 60 29 19 66 49 81 68 40 46 78 132 84 188 4
40 11 52 53 89 90 80 140 231 110 337 -9 34 -8 45 15 91 34 71 41 153 19 230
-9 32 -21 64 -26 70 -6 7 -1 29 13 60 17 38 22 68 23 134 0 77 -3 92 -33 153
l-33 67 16 51 c28 82 18 198 -23 281 -18 37 -48 80 -66 95 -32 27 -34 31 -38
118 -8 140 -54 227 -154 291 -33 21 -54 42 -54 53 0 34 -71 161 -122 216 -27
30 -53 55 -58 55 -4 0 -22 -46 -40 -102z m90 -153 c94 -189 -105 -591 -507
-1024 -90 -96 -97 -102 -105 -81 -7 18 -3 29 16 49 45 46 70 119 71 197 l0 72
100 136 c211 287 375 586 375 683 0 38 22 23 50 -32z m152 -182 c57 -58 82
-124 82 -214 1 -74 -2 -82 -56 -190 -31 -63 -87 -154 -124 -204 -83 -111 -270
-298 -385 -388 -84 -65 -225 -157 -241 -157 -19 0 -6 38 18 50 49 27 124 157
124 216 0 8 46 68 101 134 237 276 383 524 418 708 8 45 18 82 21 82 3 0 22
-17 42 -37z m208 -488 c49 -173 -94 -367 -436 -594 -118 -79 -456 -261 -483
-261 -24 0 -9 28 34 63 25 21 54 56 65 77 14 27 43 55 94 90 259 174 521 463
626 689 l25 53 31 -36 c17 -20 37 -57 44 -81z m39 -403 c31 -113 -44 -241
-202 -346 -147 -97 -339 -178 -574 -244 -201 -57 -193 -55 -193 -34 0 12 15
25 43 37 23 10 65 43 94 73 39 40 81 68 167 112 221 111 460 285 576 419 48
55 54 59 66 43 6 -10 17 -37 23 -60z m10 -329 c15 -51 14 -70 -5 -133 -50
-167 -301 -285 -714 -334 -266 -32 -339 -22 -223 29 32 14 74 41 93 60 28 26
56 39 134 60 126 34 288 91 390 138 101 47 239 139 274 183 15 19 30 34 34 34
4 0 12 -17 17 -37z m-40 -379 c2 -45 -30 -123 -69 -167 -82 -93 -241 -142
-495 -153 -117 -6 -411 9 -422 20 -10 10 12 36 31 36 28 1 98 33 139 64 25 19
53 27 122 36 298 35 523 103 645 194 32 24 35 25 42 9 3 -10 7 -27 7 -39z
m-198 -422 c-60 -118 -211 -166 -444 -144 -112 11 -248 35 -349 62 -57 16 -49
43 16 52 26 4 66 19 88 33 l41 27 151 -7 c178 -8 336 6 439 38 l72 23 3 -22
c2 -12 -6 -40 -17 -62z m-566 -207 c126 -26 291 -33 353 -16 35 10 37 6 21
-36 -14 -38 -65 -90 -114 -116 -33 -18 -56 -21 -135 -21 -106 1 -192 24 -358
96 -113 49 -120 70 -27 79 33 3 74 13 90 22 38 21 29 21 170 -8z m-222 -209
c133 -53 239 -78 341 -79 50 0 102 3 116 7 24 8 24 7 -6 -23 -25 -26 -43 -34
-100 -43 -58 -9 -75 -16 -109 -48 -55 -52 -97 -71 -169 -78 -48 -4 -69 -12
-99 -36 -34 -27 -48 -31 -110 -34 -82 -4 -154 16 -236 66 -48 30 -48 30 -102
15 -86 -23 -176 -13 -262 30 -81 40 -137 91 -120 108 8 8 25 0 59 -27 83 -63
128 -79 224 -78 57 0 98 6 124 17 36 16 39 16 65 -2 65 -46 137 -74 203 -79
63 -4 128 9 128 27 0 4 -22 15 -48 24 -26 10 -85 38 -130 64 -77 43 -81 47
-66 64 14 16 20 15 97 -26 155 -82 256 -95 348 -47 29 15 54 32 56 37 2 6 -36
23 -84 39 -80 25 -303 124 -303 133 0 2 5 13 10 24 11 19 11 19 51 -1 21 -11
76 -35 122 -54z"/>
<path d="M6440 10482 c0 -54 -7 -140 -16 -191 -12 -72 -13 -95 -4 -106 7 -8
16 -15 21 -15 5 0 30 41 55 92 25 50 57 109 71 131 22 35 23 42 12 68 -18 46
-47 78 -90 99 -21 11 -41 20 -44 20 -3 0 -5 -44 -5 -98z"/>
<path d="M4163 9505 c-28 -72 -88 -227 -133 -345 -46 -118 -86 -218 -90 -222
-4 -6 -543 -87 -577 -88 -2 0 70 -146 159 -325 90 -179 166 -324 170 -323 4 2
144 130 312 285 l305 283 65 -108 c102 -169 348 -512 366 -511 3 0 42 35 88
77 l83 78 -64 80 c-254 323 -459 710 -592 1119 l-42 129 -50 -129z"/>
<path d="M11391 9553 c-109 -376 -349 -838 -605 -1163 l-67 -84 83 -78 c46
-42 85 -77 88 -77 19 -1 244 312 357 496 l75 122 305 -282 c167 -155 308 -283
311 -285 4 -1 80 144 170 323 89 179 161 325 159 325 -19 0 -572 82 -575 85
-2 2 -62 153 -133 336 -72 183 -133 338 -138 346 -5 10 -15 -12 -30 -64z"/>
<path d="M3890 8203 c-217 -201 -394 -370 -392 -376 2 -5 40 -61 84 -124 355
-497 834 -964 1335 -1301 361 -242 832 -474 1243 -611 800 -267 1658 -338
2480 -206 803 130 1582 451 2185 899 348 259 719 620 1010 981 118 146 285
372 285 384 0 9 -746 700 -763 707 -8 3 -48 -49 -104 -133 -567 -850 -1432
-1465 -2400 -1707 -409 -102 -679 -131 -1128 -123 -317 6 -479 23 -750 78
-1068 218 -1998 850 -2605 1769 -45 69 -83 126 -84 127 0 1 -179 -163 -396
-364z m1160 -963 c37 -11 114 -67 138 -101 12 -18 11 -24 -10 -54 -26 -40 -38
-43 -61 -17 -13 15 -14 21 -4 31 18 19 -44 71 -85 71 -37 0 -68 -24 -68 -53 0
-11 19 -54 42 -96 61 -111 53 -187 -23 -227 -71 -36 -167 -3 -237 82 -38 46
-39 60 -8 97 l23 28 23 -19 c21 -17 23 -22 10 -36 -12 -15 -10 -21 16 -46 16
-16 45 -36 65 -44 44 -18 79 -4 94 38 8 24 4 39 -34 109 -65 120 -58 190 24
231 36 18 49 19 95 6z m5538 -44 c-2 -27 217 -317 235 -310 7 2 18 -6 26 -17
11 -19 11 -23 0 -30 -8 -4 -29 -19 -48 -33 -38 -28 -62 -21 -59 18 2 21 -140
222 -149 212 -3 -3 7 -59 21 -125 14 -67 26 -132 26 -145 0 -48 -32 -40 -161
38 -68 41 -125 73 -127 71 -9 -8 138 -211 159 -220 35 -15 30 -33 -19 -68 -42
-30 -44 -31 -57 -13 -8 10 -11 24 -8 31 7 20 -197 327 -213 321 -8 -3 -19 4
-25 16 -9 18 -7 24 17 44 16 13 34 23 41 24 6 0 80 -41 163 -91 83 -50 153
-89 154 -88 2 2 -14 81 -35 174 -21 94 -39 173 -39 176 0 3 17 18 37 32 40 29
64 23 61 -17z m-5017 -302 l129 -76 -18 -30 c-9 -17 -23 -32 -30 -35 -15 -6
-42 14 -39 29 1 6 -24 26 -57 45 -66 40 -65 40 -110 -38 l-26 -46 75 -44 c41
-23 75 -45 75 -48 0 -3 -8 -16 -18 -28 l-17 -22 -65 40 c-36 21 -70 39 -76 39
-13 0 -88 -120 -80 -128 23 -22 132 -78 137 -70 4 7 14 6 28 -1 26 -14 26 -16
0 -58 -20 -31 -23 -33 -43 -20 -11 7 -55 33 -96 57 -136 79 -150 89 -143 106
3 9 15 19 26 23 26 10 211 321 198 334 -8 8 6 47 17 47 2 0 62 -34 133 -76z
m4406 -149 c72 -48 143 -184 143 -271 0 -137 -167 -229 -287 -158 -50 29 -116
121 -135 188 -33 117 -1 203 94 250 65 34 128 31 185 -9z m-3911 -101 c71 -31
130 -57 132 -59 6 -6 -32 -75 -42 -75 -19 0 -39 17 -33 27 6 9 -105 63 -128
63 -10 0 -55 -95 -55 -116 0 -6 33 -25 73 -42 75 -31 87 -45 65 -75 -13 -17
-17 -17 -82 12 -37 17 -74 31 -80 31 -13 0 -73 -127 -65 -135 3 -2 34 -17 71
-33 44 -20 69 -27 76 -20 7 7 17 6 31 -1 20 -11 20 -13 6 -48 -9 -20 -17 -38
-18 -40 -8 -7 -287 122 -287 133 0 7 11 21 24 31 31 23 171 342 156 357 -10
10 4 46 18 46 5 0 66 -25 138 -56z m3320 -143 c98 -60 156 -255 106 -351 -26
-49 -95 -93 -204 -129 -70 -24 -94 -28 -100 -18 -10 16 -10 35 0 41 12 7 -111
366 -125 366 -11 0 -29 38 -21 45 1 1 46 17 98 33 114 37 199 42 246 13z
m-2890 -17 c30 -8 54 -19 54 -24 0 -18 -13 -40 -24 -40 -6 0 -21 -34 -32 -75
-12 -41 -20 -75 -18 -75 1 0 41 23 88 51 57 34 86 58 86 69 0 46 7 49 68 33
31 -9 61 -19 65 -24 14 -12 -2 -48 -21 -47 -14 1 -75 -32 -179 -98 l-22 -14
41 -122 c22 -68 47 -128 55 -135 11 -9 12 -16 3 -32 -13 -25 -12 -25 -53 -7
-31 12 -35 21 -71 135 -21 66 -41 121 -44 121 -4 0 -17 -8 -29 -18 -22 -18
-59 -132 -42 -132 13 0 11 -37 -2 -45 -11 -7 -98 12 -112 25 -11 10 11 53 22
46 5 -3 32 78 60 181 34 120 49 188 42 192 -10 6 -4 51 6 51 3 0 29 -7 59 -16z
m2279 -116 c3 -7 6 -29 7 -48 3 -30 0 -35 -21 -38 -15 -2 -28 3 -33 12 -12 22
-56 20 -95 -4 -27 -16 -33 -26 -33 -55 0 -44 23 -60 110 -75 81 -15 116 -33
140 -73 26 -43 25 -96 -2 -137 -34 -49 -88 -73 -179 -78 -78 -4 -79 -4 -89 22
-5 15 -10 38 -10 52 0 20 5 24 29 24 21 0 30 -6 34 -21 5 -19 10 -21 54 -14
84 12 121 49 102 103 -12 34 -36 46 -121 61 -106 19 -148 58 -148 139 0 64 48
110 137 131 57 14 113 13 118 -1z m-1414 -68 c35 0 39 -3 39 -24 0 -13 -5 -26
-10 -28 -7 -2 -1 -62 17 -170 15 -92 30 -164 33 -160 4 4 28 84 55 177 26 94
53 176 58 183 6 7 24 12 41 10 l30 -3 33 -189 c18 -105 34 -194 36 -199 1 -5
24 67 50 159 30 105 44 170 38 172 -6 2 -11 15 -11 28 0 24 2 25 57 22 48 -2
58 -6 61 -22 3 -11 -2 -24 -10 -30 -8 -6 -42 -101 -76 -211 -34 -109 -68 -206
-76 -214 -11 -11 -23 -12 -48 -5 l-33 10 -30 172 c-16 95 -32 172 -35 172 -3
0 -28 -75 -55 -167 l-50 -168 -44 0 -45 0 -39 215 c-25 132 -45 218 -54 223
-26 16 -13 63 15 52 7 -3 31 -5 53 -5z m889 -15 c0 -8 -5 -23 -11 -33 -13 -21
13 -371 28 -381 6 -3 12 -16 15 -28 7 -27 -7 -33 -73 -33 -45 0 -49 2 -49 24
0 13 5 26 11 28 19 6 -16 369 -36 380 -15 9 -20 39 -8 51 3 4 33 7 65 7 45 0
58 -3 58 -15z"/>
<path d="M9794 6676 c-41 -41 -44 -79 -14 -157 38 -102 94 -159 155 -159 34 0
82 25 95 49 30 57 -9 182 -80 254 -40 39 -53 47 -85 47 -29 0 -44 -7 -71 -34z"/>
<path d="M9198 6445 l-46 -15 55 -168 c31 -92 59 -171 63 -175 11 -12 104 30
131 59 49 52 27 211 -40 277 -35 36 -95 43 -163 22z"/>
<path d="M3270 4075 c0 -50 2 -55 24 -61 29 -7 46 1 46 22 0 11 14 14 60 14
l60 0 0 -270 c0 -233 -2 -270 -15 -270 -10 0 -15 -10 -15 -30 l0 -30 79 0 c77
0 79 1 84 26 3 20 0 28 -14 31 -18 5 -19 19 -19 274 l0 269 64 0 c56 0 66 -3
71 -20 4 -14 15 -20 36 -20 29 0 29 0 29 60 l0 60 -245 0 -245 0 0 -55z"/>
<path d="M3850 4095 c0 -24 5 -35 15 -35 13 0 15 -37 15 -275 0 -238 -2 -275
-15 -275 -10 0 -15 -10 -15 -30 l0 -30 85 0 85 0 0 29 c0 20 -6 30 -20 34 -19
5 -20 14 -20 121 l0 116 155 0 155 0 0 -120 c0 -100 -2 -120 -15 -120 -8 0
-15 -3 -15 -7 0 -5 -3 -18 -6 -30 -6 -23 -5 -23 80 -23 l86 0 0 30 c0 20 -5
30 -15 30 -13 0 -15 37 -15 275 0 238 2 275 15 275 10 0 15 11 15 35 l0 35
-80 0 c-62 0 -80 -3 -80 -14 0 -8 -3 -22 -6 -31 -5 -11 0 -18 15 -22 20 -5 21
-11 21 -119 l0 -114 -155 0 -155 0 0 114 c0 105 1 114 20 119 15 4 20 14 20
36 l0 31 -85 0 -85 0 0 -35z"/>
<path d="M4550 4095 c0 -24 5 -35 15 -35 13 0 15 -37 15 -275 0 -238 -2 -275
-15 -275 -10 0 -15 -10 -15 -30 l0 -30 215 0 215 0 0 55 c0 54 0 55 -30 55
-20 0 -30 -5 -30 -15 0 -12 -20 -15 -120 -15 l-120 0 0 115 0 115 125 0 125 0
0 40 0 40 -125 0 -125 0 0 105 0 105 109 0 c100 0 109 -2 114 -20 4 -15 14
-20 36 -20 l31 0 0 60 0 60 -210 0 -210 0 0 -35z"/>
<path d="M5440 4095 c0 -23 5 -35 14 -35 12 0 15 -42 18 -237 3 -225 4 -241
26 -285 14 -29 38 -56 60 -70 33 -21 50 -23 152 -23 130 0 166 13 207 74 37
55 43 96 43 322 0 208 1 217 20 222 15 4 20 14 20 36 l0 31 -85 0 -85 0 0 -35
c0 -29 4 -35 21 -35 21 0 21 -2 17 -222 -4 -243 -10 -269 -65 -305 -40 -27
-143 -25 -180 3 -46 34 -52 69 -52 307 -1 178 1 217 13 217 13 0 29 48 19 62
-2 5 -40 8 -84 8 l-79 0 0 -35z"/>
<path d="M6130 4099 c0 -22 5 -32 20 -36 19 -5 20 -14 20 -275 0 -261 -1 -270
-20 -275 -14 -4 -20 -14 -20 -34 l0 -29 85 0 85 0 0 30 c0 23 -4 30 -20 30
-19 0 -20 7 -20 216 0 118 3 213 8 210 4 -2 84 -113 177 -245 170 -240 170
-240 208 -241 l37 0 0 305 c0 292 1 305 19 305 11 0 21 9 25 23 12 46 10 47
-79 47 l-85 0 0 -35 c0 -24 5 -35 15 -35 13 0 15 -30 15 -212 l0 -212 -50 69
c-28 39 -108 150 -178 248 l-127 177 -57 0 -58 0 0 -31z"/>
<path d="M6880 4095 c0 -24 5 -35 15 -35 13 0 15 -37 15 -275 0 -238 -2 -275
-15 -275 -10 0 -15 -10 -15 -30 l0 -31 83 3 c81 3 82 3 85 31 3 22 -1 27 -17
27 -21 0 -21 4 -21 275 0 228 2 275 14 275 15 0 26 21 26 51 0 17 -8 19 -85
19 l-85 0 0 -35z"/>
<path d="M7140 4095 c0 -27 4 -35 18 -35 14 0 41 -63 131 -305 l114 -305 49 0
c58 0 42 -31 179 344 68 187 99 260 112 264 12 3 17 14 17 38 l0 34 -80 0 -80
0 0 -35 c0 -25 4 -35 16 -35 9 0 14 -4 12 -8 -1 -5 -41 -115 -87 -246 -50
-142 -87 -232 -92 -224 -4 7 -44 116 -88 242 -70 197 -80 231 -67 238 9 5 16
22 16 38 l0 30 -85 0 -85 0 0 -35z"/>
<path d="M7860 4095 c0 -24 5 -35 15 -35 13 0 15 -37 15 -275 0 -238 -2 -275
-15 -275 -10 0 -15 -10 -15 -30 l0 -30 215 0 215 0 0 55 c0 54 0 55 -30 55
-20 0 -30 -5 -30 -15 0 -12 -20 -15 -120 -15 l-120 0 0 115 0 115 125 0 125 0
0 40 0 40 -125 0 -125 0 0 105 0 105 109 0 c102 0 109 -1 114 -21 4 -16 12
-20 34 -17 27 3 28 6 31 61 l3 57 -211 0 -210 0 0 -35z"/>
<path d="M8430 4116 c0 -8 -3 -22 -6 -31 -5 -11 0 -18 15 -22 21 -5 21 -8 21
-279 0 -237 -2 -274 -15 -274 -8 0 -15 -6 -15 -14 0 -8 -3 -21 -6 -30 -5 -14
6 -16 80 -16 l86 0 0 30 c0 20 -5 30 -15 30 -12 0 -15 18 -15 100 l0 100 48 0
49 0 72 -130 73 -130 53 0 c49 0 53 2 58 26 3 20 0 28 -14 31 -11 3 -44 50
-79 110 -33 58 -60 106 -60 108 0 1 17 14 39 28 106 70 114 267 13 334 -48 31
-117 43 -257 43 -101 0 -125 -3 -125 -14z m295 -82 c40 -18 58 -57 57 -120 -2
-86 -52 -124 -162 -124 l-60 0 0 130 0 130 66 0 c39 0 79 -6 99 -16z"/>
<path d="M9124 4106 c-78 -36 -116 -114 -95 -194 20 -74 67 -111 206 -163 30
-11 69 -32 85 -46 26 -21 30 -32 30 -72 0 -37 -5 -52 -24 -70 -30 -29 -88 -42
-146 -35 -71 9 -80 13 -80 39 0 18 -7 26 -25 31 -46 12 -56 0 -53 -63 l3 -57
45 -13 c128 -37 256 -22 324 38 43 37 60 85 54 156 -7 87 -46 123 -191 179
-92 35 -127 66 -127 111 0 71 43 103 139 103 58 0 60 -1 63 -27 3 -24 8 -28
41 -31 l37 -3 0 64 c0 64 0 65 -31 71 -17 3 -70 6 -118 6 -69 0 -96 -5 -137
-24z"/>
<path d="M9580 4095 c0 -24 5 -35 15 -35 13 0 15 -37 15 -275 0 -238 -2 -275
-15 -275 -10 0 -15 -10 -15 -30 l0 -30 79 0 c73 0 79 2 85 23 9 34 8 37 -14
37 -20 0 -20 7 -20 275 0 228 2 275 14 275 15 0 30 45 21 60 -4 6 -42 10 -86
10 l-79 0 0 -35z"/>
<path d="M9850 4075 c0 -50 2 -55 24 -61 29 -7 46 1 46 22 0 11 14 14 60 14
l60 0 0 -270 c0 -233 -2 -270 -15 -270 -10 0 -15 -10 -15 -30 l0 -31 83 3 c81
3 82 3 85 31 3 22 -1 27 -17 27 -21 0 -21 4 -21 270 l0 270 70 0 c63 0 70 -2
70 -20 0 -16 7 -20 30 -20 l30 0 0 60 0 60 -245 0 -245 0 0 -55z"/>
<path d="M10400 4095 c0 -24 5 -35 14 -35 9 0 54 -77 110 -186 l96 -187 0 -88
c0 -72 -3 -89 -15 -89 -8 0 -15 -3 -15 -7 0 -5 -3 -18 -6 -30 -6 -23 -5 -23
80 -23 l86 0 0 30 c0 20 -5 30 -15 30 -12 0 -15 17 -15 91 l0 92 93 180 c52
102 99 182 108 184 16 5 32 57 21 68 -3 3 -41 5 -84 5 l-78 0 0 -35 c0 -24 5
-35 15 -35 11 0 -4 -39 -52 -135 -37 -74 -70 -135 -73 -135 -3 0 -36 61 -73
135 -44 89 -62 135 -53 135 13 0 28 55 18 65 -3 3 -41 5 -84 5 l-78 0 0 -35z"/>
<path d="M11445 4114 c-53 -20 -109 -76 -136 -138 -31 -69 -39 -256 -15 -339
22 -75 70 -136 131 -167 67 -34 189 -35 250 -3 84 44 129 121 145 245 23 187
-38 345 -155 399 -49 23 -162 24 -220 3z m186 -87 c19 -12 45 -44 59 -72 23
-45 25 -62 25 -170 0 -110 -2 -125 -25 -170 -32 -60 -76 -89 -139 -89 -66 0
-106 27 -139 94 -25 50 -27 65 -27 170 0 103 3 120 25 165 14 28 40 60 59 72
46 31 116 31 162 0z"/>
<path d="M11930 4099 c0 -22 5 -32 20 -36 19 -5 20 -14 20 -275 0 -261 -1
-270 -20 -275 -14 -4 -20 -14 -20 -34 l0 -29 85 0 85 0 0 30 c0 20 -5 30 -15
30 -13 0 -15 21 -15 125 l0 125 115 0 115 0 0 40 0 40 -115 0 -115 0 0 105 0
105 106 0 c97 0 106 -2 111 -20 4 -14 14 -20 34 -20 29 0 29 1 29 60 l0 60
-210 0 -210 0 0 -31z"/>
<path d="M6726 3125 c-149 -31 -262 -111 -314 -223 -20 -45 -27 -77 -30 -147
-5 -117 19 -186 91 -263 68 -71 140 -113 299 -173 291 -111 338 -153 338 -304
-1 -95 -52 -164 -151 -201 -56 -22 -235 -24 -336 -6 l-73 14 0 53 c0 69 -10
77 -102 73 l-73 -3 -3 -127 -3 -127 83 -26 c126 -40 264 -58 393 -52 271 14
433 131 475 344 27 137 -14 269 -112 358 -69 63 -124 93 -285 154 -156 59
-201 81 -248 123 -50 43 -67 81 -68 148 -1 141 113 220 317 220 133 0 134 -1
138 -69 l3 -56 68 -8 c38 -5 75 -6 83 -3 12 5 14 31 12 143 l-3 137 -60 13
c-94 21 -357 25 -439 8z"/>
<path d="M3276 3099 c-18 -89 -6 -119 48 -119 21 0 30 -31 182 -661 87 -364
164 -669 170 -677 9 -12 35 -17 106 -20 155 -7 133 -54 291 605 72 304 134
553 137 553 3 0 64 -252 135 -561 72 -309 135 -568 141 -577 7 -10 34 -16 87
-20 96 -6 143 3 161 31 8 12 85 299 171 637 86 338 160 632 166 653 8 28 15
37 32 37 12 0 27 4 33 8 12 7 25 108 17 130 -4 9 -48 12 -178 12 l-173 0 -4
-62 c-5 -73 3 -88 44 -88 23 0 28 -4 24 -17 -3 -10 -60 -259 -127 -553 -67
-294 -125 -538 -128 -542 -4 -4 -69 270 -146 609 -77 339 -145 622 -150 630
-7 9 -38 16 -87 20 -128 10 -109 54 -272 -652 -77 -330 -142 -603 -146 -607
-3 -5 -59 236 -125 535 -65 298 -121 550 -123 560 -3 12 2 17 16 17 46 0 52 9
52 81 l0 69 -174 0 -173 0 -7 -31z"/>
<path d="M5266 3069 c-7 -71 2 -89 45 -89 l29 0 0 -604 0 -604 -34 -6 c-32 -6
-33 -8 -40 -67 -3 -34 -3 -65 0 -70 3 -5 212 -9 485 -9 l479 0 0 124 0 124
-64 7 c-36 4 -69 4 -75 0 -6 -3 -11 -22 -11 -41 l0 -34 -260 0 -260 0 0 255 0
255 275 0 275 0 0 90 0 90 -275 0 -275 0 0 230 0 230 245 0 245 0 0 -34 c0
-39 14 -46 93 -46 l47 0 0 130 0 130 -459 0 -458 0 -7 -61z"/>
<path d="M7410 3006 l0 -124 59 -7 c33 -4 65 -4 70 0 6 3 11 22 11 41 l0 34
140 0 140 0 0 -589 0 -589 -35 -6 c-40 -8 -48 -27 -43 -97 l3 -44 182 -3 181
-2 4 60 c4 77 3 78 -38 86 l-34 6 0 589 0 589 144 0 144 0 6 -35 c6 -29 12
-35 40 -40 18 -4 48 -5 67 -3 l34 3 3 128 3 127 -541 0 -540 0 0 -124z"/>
<path d="M8635 3064 c-8 -73 -2 -84 48 -84 l27 0 0 -604 0 -604 -34 -6 c-33
-6 -34 -8 -41 -66 -4 -32 -4 -64 0 -69 4 -8 161 -11 486 -11 l479 0 0 120 c0
137 3 132 -88 134 l-57 1 -3 -37 -3 -38 -260 0 -259 0 0 255 0 255 275 0 275
0 0 90 0 90 -275 0 -275 0 0 230 0 230 245 0 245 0 0 -34 c0 -39 14 -46 93
-46 l47 0 0 130 0 130 -459 0 -459 0 -7 -66z"/>
<path d="M9786 3115 c-3 -9 -6 -41 -6 -70 0 -56 8 -65 56 -65 l24 0 0 -603 0
-603 -37 -10 -38 -9 0 -65 0 -65 183 -3 182 -2 0 69 0 70 -35 7 -35 6 0 214 0
215 107 -3 108 -3 163 -287 163 -288 120 0 119 0 0 70 0 70 -38 6 c-37 6 -39
9 -170 234 -72 125 -132 231 -132 236 0 5 28 25 62 44 156 90 238 277 210 480
-27 188 -119 290 -307 341 -72 20 -111 23 -386 27 -280 4 -307 2 -313 -13z
m569 -166 c133 -24 196 -86 216 -212 24 -145 -28 -267 -135 -322 -57 -29 -66
-30 -208 -33 l-148 -4 0 291 0 291 108 0 c60 0 135 -5 167 -11z"/>
<path d="M11025 3064 c-8 -73 -2 -84 48 -84 l27 0 0 -604 0 -604 -34 -6 c-33
-6 -35 -9 -41 -61 -12 -89 -20 -85 183 -85 l179 0 7 62 c3 34 2 66 -3 71 -5 5
-27 11 -50 14 l-41 6 0 479 c0 279 4 477 9 474 5 -3 186 -253 402 -556 l392
-550 79 0 78 0 0 680 0 680 40 0 c48 0 54 10 55 90 l0 55 -181 3 -182 2 -4
-62 c-6 -72 2 -88 43 -88 l29 0 0 -472 c0 -396 -2 -470 -13 -458 -8 8 -173
238 -367 510 -194 272 -367 512 -383 533 l-29 37 -118 0 -118 0 -7 -66z"/>
<path d="M5907 1309 c-119 -24 -218 -93 -264 -183 -37 -73 -43 -189 -14 -267
39 -104 138 -177 336 -249 222 -81 265 -121 265 -247 0 -132 -70 -185 -250
-190 -59 -2 -131 2 -165 9 l-60 13 -3 51 -3 52 -62 4 c-34 3 -68 1 -74 -5 -9
-6 -13 -42 -13 -112 l0 -103 63 -20 c152 -50 311 -63 436 -38 146 30 234 89
286 193 27 53 30 67 30 158 0 89 -3 106 -27 150 -48 93 -140 159 -303 218
-108 39 -146 56 -197 89 -129 82 -111 252 35 313 49 20 141 29 211 21 l56 -7
0 -50 c0 -56 11 -63 96 -57 l49 3 3 117 3 116 -53 12 c-70 16 -320 22 -381 9z"/>
<path d="M3648 1270 c-1 -22 -2 -48 -2 -57 -1 -12 9 -20 29 -23 17 -4 29 -11
28 -17 -8 -43 -366 -1019 -376 -1025 -6 -4 -20 -8 -29 -8 -18 0 -32 -48 -26
-91 3 -24 3 -24 154 -27 171 -3 164 -6 164 81 0 29 -4 37 -17 37 -44 1 -46 13
-17 104 l28 86 264 -2 264 -3 30 -79 c31 -85 30 -106 -1 -106 -16 0 -21 -9
-27 -45 -11 -76 -14 -75 159 -75 l154 0 7 37 c11 69 8 83 -16 83 -13 0 -29 4
-36 8 -10 7 -452 1140 -452 1159 0 1 -63 3 -140 3 l-140 0 -2 -40z m304 -483
c54 -153 98 -285 98 -293 0 -12 -34 -14 -205 -14 -113 0 -205 3 -205 8 0 7
184 562 196 592 6 13 7 13 12 0 3 -8 50 -140 104 -293z"/>
<path d="M4437 1303 c-4 -3 -7 -30 -7 -59 0 -52 0 -53 33 -56 l32 -3 5 -440
c5 -420 6 -443 28 -506 56 -167 183 -239 422 -239 200 0 339 60 404 174 60
103 60 105 66 576 l5 435 31 3 c30 3 32 5 37 55 2 29 3 55 0 60 -2 4 -74 7
-159 7 l-154 0 -1 -45 c-1 -25 -2 -51 -3 -57 -1 -8 13 -14 32 -16 l32 -3 0
-402 c0 -430 -4 -473 -50 -540 -48 -70 -113 -98 -230 -99 -97 -1 -156 18 -201
63 -71 71 -74 91 -74 559 l0 415 30 5 c29 5 30 7 33 63 l3 57 -154 0 c-84 0
-157 -3 -160 -7z"/>
<path d="M6510 1206 l0 -103 31 -7 c70 -14 86 -9 93 29 l7 35 114 0 115 0 0
-505 0 -505 -29 -6 c-27 -6 -29 -10 -33 -55 -1 -27 -1 -54 0 -59 2 -6 65 -10
158 -10 l154 0 2 40 c1 22 2 48 2 57 1 11 -10 20 -31 25 l-33 9 0 504 0 505
123 0 123 0 9 -32 c10 -32 12 -33 65 -33 l55 0 3 108 3 107 -466 0 -465 0 0
-104z"/>
<path d="M7567 1259 c-8 -62 -4 -69 34 -69 l29 0 0 -520 0 -520 -29 -6 c-26
-5 -29 -11 -34 -56 -4 -28 -4 -55 -1 -59 3 -5 75 -9 160 -9 l154 0 0 59 c0 57
-1 59 -30 65 l-30 6 0 185 0 186 92 -3 91 -3 141 -248 140 -248 101 3 100 3 3
56 3 57 -34 6 c-33 6 -41 18 -148 203 -63 109 -115 200 -116 203 -1 3 17 14
40 25 58 26 133 105 163 168 47 104 49 261 3 367 -25 58 -92 124 -155 151 -89
40 -167 49 -425 49 l-246 0 -6 -51z m534 -110 c93 -31 142 -107 142 -219 0
-92 -17 -144 -63 -190 -53 -53 -115 -70 -252 -70 l-108 0 0 245 0 245 124 0
c67 0 138 -5 157 -11z"/>
<path d="M8946 1288 c-3 -13 -6 -40 -6 -60 0 -36 2 -38 31 -38 24 0 30 -4 27
-18 -2 -10 -84 -244 -183 -520 l-180 -502 -32 -6 c-33 -6 -33 -7 -33 -65 l0
-59 155 0 155 0 2 40 c1 22 2 48 2 57 1 11 -10 20 -31 25 l-32 8 31 90 30 90
263 0 263 0 31 -87 c33 -90 32 -102 -11 -103 -15 0 -18 -10 -18 -60 l0 -60
160 0 160 0 0 58 c0 56 -1 58 -32 67 -32 10 -34 14 -253 587 l-220 578 -136 0
c-133 0 -137 -1 -143 -22z m303 -501 c55 -158 101 -292 101 -297 0 -6 -79 -10
-205 -10 -156 0 -205 3 -205 12 0 26 195 597 201 590 4 -4 52 -137 108 -295z"/>
<path d="M9847 1303 c-4 -3 -7 -30 -7 -59 0 -52 0 -53 33 -56 l32 -3 3 -516 2
-516 -32 -9 c-32 -9 -33 -12 -36 -67 l-3 -57 411 0 410 0 0 110 0 110 -60 0
-60 0 0 -35 0 -35 -222 2 -223 3 0 505 0 505 30 5 c29 5 30 7 33 63 l3 57
-154 0 c-84 0 -157 -3 -160 -7z"/>
<path d="M10767 1258 c-6 -64 -4 -68 34 -68 l29 0 0 -520 0 -520 -29 -6 c-26
-6 -29 -10 -34 -58 -2 -28 -3 -54 0 -58 2 -5 74 -8 159 -8 l154 0 2 45 c0 25
1 50 2 57 1 6 -14 16 -31 20 l-33 9 0 519 0 520 29 0 c28 0 29 2 33 53 3 28 3
55 1 60 -2 4 -73 7 -157 7 l-153 0 -6 -52z"/>
<path d="M11570 1250 l0 -60 30 0 c17 0 30 -2 30 -4 0 -4 -351 -982 -365
-1019 -4 -10 -20 -20 -35 -23 -25 -5 -28 -11 -34 -57 -3 -28 -2 -55 2 -59 5
-5 76 -7 158 -6 l149 3 3 58 c3 49 1 57 -15 57 -44 1 -46 13 -17 104 l28 86
266 0 265 0 31 -91 31 -90 -27 -6 c-24 -4 -28 -11 -33 -55 -4 -28 -4 -55 -1
-59 3 -5 74 -9 159 -9 171 0 165 -3 165 75 0 41 -2 43 -33 49 l-34 6 -221 578
-221 577 -140 3 -141 3 0 -61z m305 -465 c58 -165 105 -301 105 -302 0 -2 -94
-3 -210 -3 -115 0 -210 3 -210 8 0 6 178 546 195 591 3 8 7 12 10 9 2 -2 52
-139 110 -303z"/>
</g>
</svg>
